<?xml version="1.0" standalone="no"?>
<!DOCTYPE svg PUBLIC "-//W3C//DTD SVG 20010904//EN"
 "http://www.w3.org/TR/2001/REC-SVG-20010904/DTD/svg10.dtd">
<svg version="1.0" xmlns="http://www.w3.org/2000/svg"
 width="700.000000pt" height="700.000000pt" viewBox="0 0 700.000000 700.000000"
 preserveAspectRatio="xMidYMid meet">
<metadata>
Created by potrace 1.14, written by Peter Selinger 2001-2017
</metadata>
<g transform="translate(0.000000,700.000000) scale(0.100000,-0.100000)"
fill="#000000" stroke="none">
<path d="M767 6428 c-152 -19 -278 -146 -306 -308 -13 -73 -21 -2066 -8 -2134
25 -141 141 -268 272 -301 38 -9 2468 -7 2476 3 4 4 10 547 13 1208 6 1188 6
1201 -14 1266 -26 84 -72 152 -135 200 -97 74 -38 70 -1200 72 -572 0 -1067
-2 -1098 -6z m2213 -69 c92 -44 152 -117 180 -219 12 -45 13 -82 6 -1952 0
-297 -5 -458 -11 -459 -5 -1 -546 -2 -1202 -4 -1095 -2 -1196 -1 -1242 15 -98
33 -178 120 -206 225 -15 55 -16 158 -12 1100 4 740 9 1051 17 1079 24 81 92
170 155 204 76 40 73 39 1185 38 l1075 -1 55 -26z"/>
<path d="M1780 6183 c-397 -232 -709 -579 -845 -938 -23 -61 -32 -94 -51 -180
-3 -11 -6 -56 -9 -101 -7 -129 25 -230 92 -297 126 -126 346 -101 634 72 l36
22 12 -45 c35 -142 -7 -209 -250 -399 -188 -146 -236 -204 -267 -322 -13 -51
-14 -67 -4 -77 9 -9 63 -13 185 -14 200 -2 1175 -6 1196 -5 11 1 13 15 8 67
-9 121 -70 209 -252 369 -166 144 -205 200 -205 292 0 51 23 123 39 123 5 0
40 -18 77 -40 87 -51 201 -95 284 -110 389 -70 496 345 217 841 -135 240 -376
488 -632 651 -85 54 -200 118 -212 118 -4 0 -28 -12 -53 -27z m144 -149 c3 -8
2 -12 -4 -9 -6 3 -10 10 -10 16 0 14 7 11 14 -7z"/>
<path d="M3969 6436 c-2 -3 -16 -7 -30 -9 -71 -13 -159 -79 -207 -155 -65
-101 -64 -91 -62 -797 3 -1142 8 -1776 14 -1782 9 -9 2415 -10 2465 -1 125 23
236 129 277 266 13 39 15 158 14 712 -3 1337 -5 1448 -28 1512 -39 108 -103
180 -202 227 l-55 26 -1091 3 c-600 1 -1092 0 -1095 -2z m2206 -60 c98 -41
158 -108 194 -212 22 -66 21 3 24 -1499 l1 -670 -22 -56 c-29 -73 -85 -137
-153 -174 l-54 -30 -1220 0 -1220 0 -2 70 c-7 325 -10 2279 -3 2316 27 141
131 248 261 267 29 4 525 7 1103 6 965 -1 1054 -2 1091 -18z"/>
<path d="M4523 6049 c-231 -37 -418 -223 -472 -473 -32 -144 -10 -278 70 -439
39 -78 137 -229 176 -272 10 -11 38 -45 63 -75 25 -30 47 -57 50 -60 8 -8 167
-185 260 -290 167 -188 262 -319 331 -457 29 -57 57 -103 63 -103 6 0 25 28
41 62 73 150 182 293 454 598 272 304 379 445 455 596 50 100 86 232 86 313
-2 330 -263 606 -565 596 -102 -3 -126 -9 -205 -47 -80 -39 -192 -148 -235
-230 -17 -32 -32 -58 -35 -57 -3 0 -20 31 -38 69 -91 191 -295 300 -499 269z
m1033 -44 c-3 -8 -1 -15 4 -15 6 0 10 4 10 10 0 5 10 8 22 6 13 -1 23 -10 23
-18 0 -15 28 -48 42 -50 16 -2 73 -32 73 -38 0 -3 7 -15 15 -26 10 -12 14 -14
12 -4 -2 8 -2 12 0 8 3 -5 11 -8 19 -8 8 0 14 -4 14 -9 0 -4 -16 -8 -35 -7
-24 1 -40 8 -50 24 -9 12 -12 22 -6 22 5 0 15 -8 21 -17 6 -10 10 -12 8 -4 -2
8 -15 21 -28 30 -21 14 -23 14 -16 1 4 -8 0 -6 -10 5 -11 13 -15 15 -11 5 2
-9 -1 -24 -9 -34 -12 -17 -13 -16 -10 10 4 34 -1 47 -15 38 -6 -3 -5 -12 3
-22 11 -15 11 -15 -3 -5 -9 7 -20 9 -25 5 -5 -4 0 4 11 18 l20 25 -21 -18
c-11 -9 -24 -14 -29 -10 -4 5 -5 2 0 -6 6 -10 4 -12 -6 -6 -11 7 -11 5 1 -11
14 -18 14 -18 -3 -5 -9 8 -20 11 -24 8 -3 -4 -13 -1 -21 6 -13 9 -14 9 -8 0 4
-7 16 -18 28 -24 16 -9 19 -8 13 3 -3 7 0 4 9 -6 8 -10 13 -22 11 -27 -11 -18
18 -20 37 -2 14 11 18 13 12 3 -11 -20 -12 -32 -2 -46 10 -13 0 -44 -13 -44
-5 0 -9 -5 -9 -12 0 -9 3 -9 12 0 18 18 31 15 23 -5 -5 -14 -4 -15 6 -6 10 10
9 16 -2 30 -13 17 -13 17 5 3 12 -9 17 -10 12 -2 -6 10 -2 10 18 0 14 -6 26
-16 26 -22 0 -6 -5 -5 -12 2 -15 15 -28 15 -28 1 0 -5 4 -8 9 -5 5 3 15 -2 22
-12 13 -16 13 -16 -6 -2 -19 14 -19 14 -5 -4 13 -18 13 -19 0 -11 -8 4 -12 4
-7 0 4 -5 0 -16 -9 -26 -19 -21 -9 -43 14 -34 9 3 13 3 10 -1 -4 -3 2 -22 12
-42 19 -34 19 -37 2 -56 -11 -14 -8 -13 12 4 16 14 26 19 22 13 -5 -9 -2 -11
11 -7 16 6 15 4 -2 -10 -11 -10 -13 -14 -5 -10 13 7 13 5 2 -9 -12 -14 -11
-16 7 -12 12 2 19 0 16 -6 -4 -5 -11 -7 -16 -4 -5 4 -9 1 -9 -4 0 -13 12 -14
26 -3 5 4 1 -1 -9 -10 -22 -20 -9 -25 13 -5 12 10 12 9 2 -4 -15 -20 2 -38 31
-34 9 2 15 -1 11 -6 -8 -14 -30 -11 -44 6 -7 8 -16 15 -21 15 -13 0 34 -46 48
-46 7 0 14 5 17 13 3 7 11 13 18 13 9 0 9 -3 -2 -10 -8 -5 -11 -12 -7 -17 5
-4 12 -1 16 6 5 8 11 9 14 4 4 -6 -5 -15 -18 -21 -14 -7 -25 -16 -25 -21 0
-13 28 -34 38 -28 4 3 14 1 22 -5 12 -8 12 -9 -3 -4 -10 3 -16 2 -13 -2 7 -12
-26 -11 -41 1 -9 6 -13 6 -13 -2 0 -6 5 -11 11 -11 5 0 7 -5 3 -11 -5 -8 -8
-8 -14 0 -11 18 -32 -13 -23 -34 6 -16 9 -15 29 11 19 23 26 26 36 16 11 -11
10 -12 -4 -7 -11 4 -18 2 -18 -4 0 -6 6 -10 13 -9 6 2 11 -3 9 -10 -1 -8 2
-11 9 -6 7 4 9 3 5 -4 -3 -6 -15 -9 -25 -7 -11 2 -22 -3 -25 -10 -5 -15 17
-39 27 -28 4 3 7 1 7 -4 0 -13 18 -12 40 2 13 8 13 7 0 -10 -13 -17 -13 -18 0
-11 8 4 6 0 -5 -10 -20 -16 -20 -17 0 -10 11 4 16 4 12 0 -4 -4 -1 -14 6 -22
8 -11 8 -14 0 -9 -13 8 -12 -18 2 -30 4 -4 5 -3 2 3 -4 7 2 10 18 8 14 -1 25
1 25 5 0 4 9 7 20 8 26 2 25 -12 -2 -31 -12 -9 -19 -16 -14 -16 5 0 3 -7 -4
-15 -7 -8 -9 -15 -4 -15 4 0 -2 -10 -14 -23 -12 -13 -19 -27 -15 -31 5 -4 2
-6 -6 -4 -7 2 -15 -6 -17 -17 -1 -11 -12 -28 -24 -37 -11 -9 -21 -21 -22 -25
0 -4 -7 -17 -15 -28 -14 -19 -15 -19 -8 4 l7 24 -31 -22 c-17 -12 -31 -27 -31
-32 0 -6 -4 -7 -10 -4 -5 3 -10 11 -10 17 0 6 3 9 6 5 3 -3 11 -2 18 4 6 5 22
18 36 29 22 18 22 20 5 18 -10 -2 -27 -11 -37 -21 -10 -10 -22 -15 -27 -13 -4
3 -13 -6 -20 -20 -6 -14 -16 -22 -21 -19 -6 3 -10 -3 -10 -14 0 -12 5 -20 12
-18 6 1 14 -6 16 -15 2 -10 -1 -18 -7 -18 -6 0 -8 7 -4 15 3 10 0 15 -8 13 -9
-2 -14 6 -14 22 0 16 5 24 14 22 9 -2 11 3 7 15 -4 9 -4 14 0 10 4 -4 13 2 21
13 9 12 20 17 31 13 14 -6 15 -4 5 8 -11 14 -7 15 33 14 31 -2 42 1 35 8 -7 7
-4 19 9 38 l20 27 -25 -2 c-14 0 -27 -7 -30 -15 -3 -9 0 -11 10 -7 12 4 13 2
2 -14 -13 -22 -29 -27 -21 -7 3 8 -4 13 -17 14 -17 2 -18 -1 -9 -13 8 -9 9
-14 2 -14 -6 0 -12 6 -15 13 -3 9 -9 9 -27 -1 -12 -7 -24 -11 -26 -9 -3 2 11
12 31 21 20 10 39 24 42 32 3 8 11 13 18 11 7 -3 12 5 12 23 0 19 -5 26 -13
23 -7 -2 -10 -12 -7 -21 4 -14 3 -14 -5 -3 -11 15 -5 44 8 36 4 -2 15 4 25 15
10 11 13 20 7 20 -6 0 -14 -5 -17 -10 -4 -6 -15 -8 -26 -5 -11 4 -19 3 -18 -2
3 -20 -2 -34 -11 -28 -15 9 -12 -4 5 -21 20 -21 19 -31 -5 -44 -14 -7 -20 -7
-20 0 0 5 7 10 15 10 18 0 19 12 3 28 -17 17 -33 15 -19 -2 9 -11 9 -15 -1
-18 -7 -3 -13 -13 -13 -23 0 -10 -6 -19 -13 -21 -7 -1 -8 0 -2 3 5 2 10 9 10
14 0 6 -6 7 -12 3 -7 -4 -5 2 5 13 23 27 22 40 -3 18 -11 -10 -20 -13 -20 -7
0 7 5 12 11 12 8 0 8 5 -1 15 -8 9 -8 15 -2 15 6 0 12 -5 14 -11 2 -6 12 -1
23 12 l20 22 -22 -7 c-17 -5 -23 -3 -23 8 0 8 5 18 10 21 6 3 10 12 10 18 -1
7 -9 2 -20 -11 -11 -13 -21 -18 -25 -12 -4 7 -14 5 -28 -5 -12 -8 -26 -15 -32
-15 -5 0 7 11 28 25 20 14 37 30 37 35 0 15 -9 12 -32 -10 -12 -11 -26 -20
-31 -20 -5 0 2 10 17 21 15 12 25 24 22 27 -3 3 -14 -3 -25 -12 -14 -13 -21
-14 -27 -5 -4 7 0 17 9 24 14 10 14 13 2 26 -13 13 -12 16 5 27 11 7 20 8 20
3 0 -5 -6 -12 -12 -15 -13 -5 9 -29 48 -52 16 -10 17 -13 5 -28 -7 -9 -9 -16
-3 -16 5 0 15 7 22 15 9 11 7 19 -14 40 -14 14 -30 25 -37 25 -8 0 -8 4 1 15
22 26 -2 41 -40 25 -24 -10 -34 -10 -43 -1 -9 9 -8 14 3 21 9 6 19 5 24 0 19
-19 29 -10 11 10 -17 18 -17 20 -2 14 9 -3 17 -10 17 -15 0 -5 5 -9 12 -9 6 0
20 -7 30 -17 17 -15 18 -15 18 6 0 12 -4 20 -9 17 -4 -3 -23 6 -42 21 -19 14
-26 23 -16 20 9 -4 17 -2 17 3 0 16 -18 20 -32 8 -11 -11 -20 -7 -48 21 l-35
35 33 -19 c17 -11 32 -23 32 -28 0 -5 7 -4 15 3 8 6 19 8 26 4 7 -4 10 -2 7 7
-3 8 -16 14 -29 15 -13 0 -31 4 -40 10 -15 8 -16 10 -1 24 14 13 15 13 10 -1
-5 -12 1 -16 20 -16 24 0 27 5 28 34 1 28 -1 31 -13 21 -11 -9 -16 -9 -24 3
-5 8 -9 18 -9 22 0 5 -4 5 -10 2 -6 -3 -7 1 -4 9 8 22 -3 20 -28 -4 -12 -11
-27 -20 -32 -20 -6 0 2 11 19 23 16 12 37 29 45 37 16 16 48 20 67 7 8 -5 11
-1 10 13 -1 12 -7 18 -14 16 -7 -3 -10 1 -6 10 3 8 2 14 -3 13 -20 -3 -35 2
-29 10 3 5 -4 16 -15 24 -11 7 -17 17 -13 20 3 4 1 7 -5 7 -7 0 -12 -2 -12 -4
0 -2 -3 -12 -6 -20 -4 -12 -2 -15 9 -10 8 3 18 0 22 -6 9 -15 2 -21 -29 -24
-23 -3 -24 -1 -14 12 11 13 10 15 -4 9 -10 -3 -18 -2 -18 2 0 5 7 11 15 15 8
3 15 11 15 17 0 8 -5 7 -17 -2 -14 -12 -16 -12 -9 0 6 9 5 12 -5 9 -15 -5 -19
-36 -6 -54 4 -7 1 -14 -7 -17 -11 -4 -13 -1 -9 10 5 12 3 14 -8 8 -12 -8 -12
-6 0 8 8 10 10 21 6 25 -4 4 -10 1 -12 -5 -3 -7 -9 -13 -15 -13 -6 0 -6 6 2
15 10 12 9 16 -3 21 -18 7 -37 -2 -37 -18 0 -6 7 -5 18 3 16 13 16 12 3 -4
-13 -17 -16 -17 -26 -3 -7 9 -15 12 -19 8 -4 -4 -7 -2 -6 3 5 21 -1 29 -10 15
-6 -9 -10 -10 -10 -3 0 19 17 24 33 9 11 -11 17 -12 26 -3 9 9 16 8 32 -1 20
-13 39 -9 39 8 0 5 -6 7 -14 4 -7 -3 -20 2 -29 11 -10 9 -18 11 -22 5 -3 -5
-12 -10 -18 -10 -7 0 -4 5 5 11 24 14 12 38 -17 33 -32 -6 -41 13 -19 37 13
15 20 16 31 8 7 -7 16 -10 19 -7 2 3 -11 19 -29 35 l-34 30 29 0 c18 0 24 -3
16 -8 -17 -11 -5 -21 16 -13 14 5 46 52 46 67 0 9 -74 1 -77 -9 -2 -7 7 -10
27 -8 22 3 30 0 27 -9 -2 -6 -11 -10 -18 -8 -8 2 -22 3 -32 3 -15 -1 -17 5
-13 29 3 23 1 29 -9 25 -9 -3 -12 0 -8 10 4 11 9 12 19 3 15 -13 17 -9 8 15
-3 9 -9 14 -14 11 -4 -2 -6 7 -4 21 1 16 -2 24 -9 21 -7 -2 -11 -12 -9 -22 3
-16 2 -17 -12 -2 -9 8 -16 19 -16 23 0 4 3 4 7 1 3 -4 12 -2 20 4 8 7 18 8 26
3 17 -13 50 -11 54 3 3 8 -5 10 -24 7 -20 -3 -24 -2 -14 5 8 5 23 8 33 6 10
-2 18 1 18 6 0 6 7 3 16 -5 19 -19 31 -21 15 -3 -9 11 -4 13 24 12 19 -2 35 1
35 6 0 5 3 9 6 9 3 0 4 -7 0 -15z m109 -11 c6 -1 24 -8 40 -15 17 -7 32 -13
35 -14 33 -9 82 -37 86 -50 3 -8 11 -15 18 -15 17 0 81 -71 82 -92 1 -9 -3
-15 -7 -12 -5 3 -9 10 -9 15 0 6 -12 21 -27 35 -16 14 -28 29 -28 32 0 4 -3 6
-6 5 -3 -1 -20 11 -38 28 -18 16 -34 29 -36 29 -2 0 -16 5 -32 12 -15 6 -31
12 -35 13 -5 2 -11 4 -15 5 -5 1 -11 2 -15 1 -5 0 -8 4 -8 9 0 6 -3 9 -7 9
-19 -3 -33 2 -33 12 0 6 5 7 13 2 6 -4 17 -8 22 -9z m-348 -74 c3 -11 9 -17
14 -14 5 3 9 0 9 -5 0 -18 -20 -12 -27 7 -4 9 -11 20 -17 24 -7 5 -6 8 2 8 8
0 16 -9 19 -20z m33 16 c0 -3 -4 -8 -10 -11 -5 -3 -10 -1 -10 4 0 6 5 11 10
11 6 0 10 -2 10 -4z m20 -26 c0 -5 -4 -10 -10 -10 -5 0 -10 5 -10 10 0 6 5 10
10 10 6 0 10 -4 10 -10z m-65 -20 c15 -12 9 -40 -7 -40 -6 0 -6 6 1 14 10 12
8 17 -7 25 -11 6 -22 8 -25 5 -3 -3 -8 -1 -11 5 -8 13 31 6 49 -9z m323 1 c5
-14 -16 -41 -32 -41 -6 0 -5 4 3 9 8 5 16 17 17 25 1 9 -2 14 -7 10 -5 -3 -7
-10 -4 -15 4 -5 2 -9 -4 -9 -5 0 -9 8 -8 19 1 20 28 22 35 2z m65 -28 c-4 -10
-2 -14 5 -9 6 3 13 2 17 -4 4 -6 12 -7 18 -4 8 4 7 2 -1 -7 -8 -9 -15 -10 -20
-4 -4 6 -14 10 -22 10 -8 -1 -20 3 -27 7 -7 6 -10 4 -9 -4 6 -28 19 -48 27
-42 5 3 9 0 9 -6 0 -7 8 -9 19 -5 10 3 24 -1 31 -10 8 -10 9 -15 1 -15 -6 0
-10 -5 -8 -11 1 -6 -5 -14 -13 -16 -13 -4 -13 -3 -1 5 12 8 8 14 -19 31 -19
11 -37 18 -41 16 -7 -5 -19 17 -25 42 -3 16 22 37 35 29 5 -4 13 -2 16 4 4 6
3 10 -2 9 -17 -3 -24 1 -18 11 10 17 35 -8 28 -27z m-446 5 c2 -17 0 -19 -7
-8 -5 8 -6 18 -4 22 8 12 10 10 11 -14z m108 12 c-3 -5 1 -10 9 -10 9 0 16 -4
16 -10 0 -6 -10 -5 -25 2 -19 8 -22 14 -13 20 17 10 20 10 13 -2z m-68 -6 c-3
-3 -12 -4 -19 -1 -8 3 -5 6 6 6 11 1 17 -2 13 -5z m55 -28 c5 3 4 -3 -4 -15
-14 -22 -28 -28 -28 -11 0 6 4 10 10 10 5 0 8 6 6 13 -1 6 -1 9 1 4 3 -4 9 -4
15 -1z m-54 -5 c11 -7 10 -9 -3 -14 -9 -4 -14 -3 -10 2 3 5 -1 12 -7 14 -7 3
-8 6 -3 6 6 0 16 -3 23 -8z m488 -20 c-2 -40 -12 -48 -35 -27 -11 10 -24 16
-28 13 -5 -3 -20 3 -33 13 -25 19 -25 19 -2 15 12 -2 26 -7 32 -10 5 -3 22 1
37 9 16 8 29 15 29 16 1 0 1 -13 0 -29z m34 13 c0 -8 -4 -12 -10 -9 -5 3 -10
1 -10 -4 0 -13 3 -13 24 -5 9 3 13 11 9 17 -3 6 -1 7 6 3 8 -6 9 -12 2 -20 -6
-7 -7 -17 -3 -21 4 -5 -1 -5 -11 -2 -11 4 -16 3 -12 -4 4 -6 14 -8 22 -5 11 5
13 2 9 -9 -3 -9 -2 -14 3 -11 5 3 14 0 20 -7 8 -11 5 -14 -18 -14 -20 0 -28 4
-24 14 4 11 -7 17 -28 15 -5 -1 -5 34 0 71 2 14 21 7 21 -9z m-560 -4 c0 -5
-5 -10 -11 -10 -5 0 -7 5 -4 10 3 6 8 10 11 10 2 0 4 -4 4 -10z m130 6 c0 -2
-7 -7 -16 -10 -8 -3 -12 -2 -9 4 6 10 25 14 25 6z m-180 -21 c7 -9 8 -15 2
-15 -5 0 -12 7 -16 15 -3 8 -4 15 -2 15 2 0 9 -7 16 -15z m69 -8 c-2 -1 -13
-9 -24 -17 -19 -14 -19 -14 -6 3 7 9 18 17 24 17 6 0 8 -1 6 -3z m91 -7 c0 -5
-2 -10 -4 -10 -3 0 -8 5 -11 10 -3 6 -1 10 4 10 6 0 11 -4 11 -10z m510 -12
c5 -13 9 -19 9 -14 1 5 9 0 19 -11 9 -11 26 -22 37 -24 11 -3 20 -9 20 -14 0
-6 4 -15 8 -22 9 -14 -2 -45 -14 -37 -5 3 -9 0 -9 -5 0 -16 20 -13 26 4 4 8
11 12 18 8 6 -4 3 5 -7 20 -9 15 -14 27 -10 27 4 0 -6 13 -21 29 -18 18 -24
31 -17 36 6 3 9 11 6 16 -4 5 -3 9 1 9 12 0 33 -34 34 -53 0 -11 4 -15 12 -11
8 5 9 0 6 -14 -4 -14 -2 -22 7 -22 13 0 54 -113 59 -164 3 -20 0 -26 -10 -22
-8 3 -14 1 -14 -4 0 -6 8 -10 18 -10 13 0 11 -6 -13 -28 -29 -28 -55 -37 -55
-20 0 5 11 14 25 20 19 9 22 14 14 25 -7 8 -20 11 -33 7 -17 -6 -19 -4 -9 7
10 12 8 17 -8 27 -10 7 -19 17 -19 24 0 6 7 4 18 -5 26 -24 36 -21 12 3 -22
22 -45 18 -36 -6 6 -16 -3 -18 -24 -4 -8 5 -10 10 -5 10 6 0 16 9 22 19 17 28
-12 37 -34 11 -21 -24 -41 -27 -22 -3 12 14 12 16 0 9 -9 -6 -12 -5 -9 5 3 8
11 13 18 11 7 -1 18 2 24 7 9 8 19 5 34 -10 12 -11 22 -16 22 -11 0 16 -48 43
-55 32 -3 -6 -12 -10 -18 -10 -7 1 -2 9 11 20 22 18 23 21 8 42 -9 12 -16 18
-16 12 0 -5 5 -15 12 -22 9 -9 9 -12 1 -12 -7 0 -15 5 -19 11 -4 8 -9 8 -17 0
-6 -6 -16 -11 -21 -11 -6 1 0 10 13 21 20 16 22 22 11 32 -8 8 -11 8 -7 1 4
-7 0 -17 -8 -24 -19 -16 -19 -1 0 27 13 18 13 22 -1 34 -8 7 -13 18 -10 26 3
8 2 11 -3 8 -5 -3 -12 -1 -16 5 -3 5 1 10 10 10 8 0 20 -10 25 -22z m-480 -9
c0 -6 -4 -7 -10 -4 -5 3 -10 11 -10 16 0 6 5 7 10 4 6 -3 10 -11 10 -16z
m-170 7 c0 -2 -9 -6 -20 -9 -11 -3 -18 -1 -14 4 5 9 34 13 34 5z m62 -15 c-4
-10 -7 -11 -10 -3 -2 7 -9 9 -14 6 -6 -4 -8 -3 -5 3 10 16 36 11 29 -6z m88
-11 c0 -3 -5 -12 -11 -20 -9 -13 -10 -12 -5 3 3 11 0 20 -9 23 -8 4 -15 10
-15 15 0 5 9 4 20 -3 11 -7 20 -15 20 -18z m-216 2 c3 -5 -1 -9 -9 -9 -8 0
-12 4 -9 9 3 4 7 8 9 8 2 0 6 -4 9 -8z m71 -1 c-9 -8 -36 -10 -30 -2 2 4 11 8
20 8 8 0 13 -3 10 -6z m85 -1 c0 -5 -4 -10 -10 -10 -5 0 -10 5 -10 10 0 6 5
10 10 10 6 0 10 -4 10 -10z m470 0 c0 -5 -7 -10 -15 -10 -8 0 -15 -4 -15 -9 0
-5 13 -8 30 -6 16 2 33 -1 36 -7 5 -7 2 -8 -6 -3 -9 5 -11 4 -6 -3 9 -15 1
-15 -24 -2 -13 7 -21 7 -26 -1 -4 -8 -9 -7 -15 2 -7 11 -9 10 -9 -5 0 -11 -5
-16 -13 -13 -8 3 -14 -1 -14 -8 0 -10 5 -11 18 -4 15 7 17 6 13 -6 -3 -8 -10
-13 -15 -10 -9 6 -3 -35 7 -44 4 -3 4 2 1 11 -4 12 1 22 16 29 18 10 20 10 11
-2 -15 -20 -12 -62 6 -66 12 -4 12 -3 1 5 -9 7 -10 12 -2 16 6 4 8 12 5 18 -4
7 -2 8 4 4 6 -4 8 -14 5 -23 -4 -11 -3 -14 5 -9 7 4 12 15 12 24 0 14 2 15 10
2 6 -9 5 -17 -3 -22 -9 -6 -9 -8 1 -8 7 0 10 -5 6 -11 -5 -8 -9 -8 -14 1 -5 8
-10 8 -14 2 -3 -5 1 -13 10 -16 13 -5 14 -9 4 -20 -9 -12 -7 -17 10 -26 12 -6
19 -18 16 -25 -2 -7 3 -19 12 -27 10 -8 13 -8 9 -1 -4 6 -3 14 2 17 5 3 14 -8
21 -24 7 -17 15 -29 17 -26 3 2 0 15 -7 28 -11 22 -10 22 5 3 8 -11 13 -25 11
-32 -3 -7 -1 -15 4 -18 11 -7 40 -64 40 -78 0 -6 -7 -2 -16 9 -15 18 -15 18
-4 -3 9 -19 8 -22 -5 -17 -11 5 -15 0 -13 -17 2 -16 -2 -24 -12 -24 -8 0 -15
5 -15 10 0 6 -4 17 -9 25 -5 8 -6 12 -1 8 12 -11 45 11 39 26 -3 8 -16 13 -30
11 -29 -3 -43 13 -23 26 9 6 18 3 27 -8 9 -13 12 -14 12 -2 0 12 2 12 11 -1 9
-13 10 -13 6 0 -2 8 -10 14 -17 12 -7 -2 -10 3 -7 12 8 19 -27 49 -60 52 -16
1 -30 2 -32 3 -2 1 3 8 10 18 17 20 17 16 0 36 -7 9 -18 14 -23 11 -6 -4 -5 3
1 14 9 18 8 23 -9 32 -11 6 -20 7 -20 3 0 -12 -32 49 -35 67 -1 8 -10 14 -19
12 -26 -5 -19 10 26 54 42 41 68 54 68 34z m24 1 c3 -5 -1 -11 -9 -14 -9 -4
-12 -1 -8 9 6 16 10 17 17 5z m-558 -16 c-1 -8 -5 -17 -8 -21 -5 -4 -4 16 1
34 3 9 9 -1 7 -13z m-55 -22 c13 -16 12 -17 -3 -4 -10 7 -18 15 -18 17 0 8 8
3 21 -13z m114 -12 c-6 -5 -25 10 -25 20 0 5 6 4 14 -3 8 -7 12 -15 11 -17z
m542 -1 c-2 -17 -9 -36 -15 -42 -6 -6 -8 -17 -5 -24 3 -8 0 -14 -7 -14 -6 0
-8 5 -5 10 6 10 -1 12 -42 13 -12 0 -20 4 -17 9 3 4 10 6 15 3 5 -3 6 1 3 10
-4 9 -13 14 -21 11 -11 -4 -11 -1 -3 14 9 17 15 18 31 9 14 -7 24 -7 33 0 7 6
16 8 20 4 4 -4 4 0 0 10 -3 10 -1 17 5 17 6 0 9 -13 8 -30z m-502 9 c11 -16 1
-19 -13 -3 -7 8 -8 14 -3 14 5 0 13 -5 16 -11z m-176 -12 c8 -10 7 -14 -2 -14
-8 0 -14 6 -14 14 0 7 1 13 2 13 2 0 8 -6 14 -13z m161 -7 c0 -5 -8 -10 -17
-10 -15 0 -16 2 -3 10 19 12 20 12 20 0z m37 -10 c-1 -10 -3 -17 -6 -15 -2 3
-9 -2 -15 -9 -8 -10 -17 -11 -31 -5 -19 9 -19 9 1 5 15 -2 26 4 35 20 15 29
18 30 16 4z m-77 -5 c0 -1 -8 -5 -18 -7 -11 -3 -19 0 -19 7 0 7 8 10 19 7 10
-2 18 -6 18 -7z m120 5 c-8 -5 -19 -10 -25 -10 -5 0 -3 5 5 10 8 5 20 10 25
10 6 0 3 -5 -5 -10z m-170 -4 c0 -2 -8 -10 -17 -17 -16 -13 -17 -12 -4 4 13
16 21 21 21 13z m645 -46 c-10 -11 -25 -18 -32 -15 -8 2 -11 1 -8 -4 3 -5 -4
-16 -16 -24 l-21 -15 22 -7 c18 -6 20 -9 9 -17 -12 -8 -11 -9 1 -5 8 2 14 9
13 15 -1 5 7 8 17 5 13 -4 27 3 40 18 10 13 19 19 20 14 0 -6 -6 -17 -12 -23
-7 -7 -14 -17 -14 -22 -1 -6 -2 -14 -3 -20 0 -5 -8 -7 -17 -3 -13 5 -13 8 -2
15 10 8 10 9 -2 5 -8 -2 -14 -10 -12 -17 2 -7 -5 -9 -20 -5 -18 5 -20 4 -8 -4
8 -6 24 -8 34 -5 15 5 18 3 12 -12 -5 -17 -5 -17 7 -2 9 12 18 14 30 7 9 -6
17 -15 17 -21 0 -7 -4 -7 -13 0 -8 7 -18 7 -27 2 -11 -7 -12 -10 -2 -10 8 0
10 -5 6 -12 -5 -9 -2 -9 9 1 9 7 17 11 17 8 0 -3 3 -13 6 -21 4 -11 2 -15 -7
-13 -8 2 -10 2 -5 -1 4 -2 2 -8 -5 -13 -11 -7 -10 -9 4 -10 30 -3 35 -4 43
-11 4 -5 3 -8 -3 -8 -5 0 -10 -7 -10 -15 0 -8 4 -12 9 -9 4 3 8 0 8 -5 0 -14
-6 -14 -31 -1 -10 6 -19 16 -19 23 0 7 4 6 10 -3 5 -8 10 -10 10 -4 0 7 -11
19 -25 28 -14 9 -22 22 -19 31 3 8 -6 26 -21 40 -21 22 -29 25 -41 14 -12 -10
-13 -9 -9 4 4 9 -2 21 -15 30 -14 9 -17 17 -11 22 6 3 9 10 6 15 -3 5 -1 11 5
15 6 4 7 11 4 17 -4 6 -3 8 2 5 6 -3 15 3 22 14 8 12 9 19 1 19 -5 0 -8 4 -4
10 3 5 12 7 19 4 8 -3 17 0 21 6 5 8 10 9 18 1 7 -7 5 -17 -8 -31z m-700 -8
c-3 -3 -11 0 -18 7 -9 10 -8 11 6 5 10 -3 15 -9 12 -12z m130 8 c3 -6 -1 -7
-9 -4 -18 7 -21 14 -7 14 6 0 13 -4 16 -10z m37 -7 c-6 -3 -9 -10 -6 -15 4 -7
2 -8 -5 -4 -9 6 -9 11 0 22 6 8 15 12 18 8 3 -4 0 -9 -7 -11z m-100 -10 c-6
-3 -9 -10 -5 -16 4 -7 -1 -6 -10 2 -21 17 -21 17 6 18 12 0 16 -1 9 -4z m138
-19 c0 -8 -4 -14 -10 -14 -5 0 -6 7 -3 17 5 12 3 14 -7 8 -9 -5 -11 -4 -6 4 9
14 26 5 26 -15z m-59 -1 c13 -16 12 -17 -3 -4 -10 7 -18 15 -18 17 0 8 8 3 21
-13z m-276 -3 c-3 -5 -12 -10 -18 -10 -7 0 -6 4 3 10 19 12 23 12 15 0z m155
6 c0 -3 -4 -8 -10 -11 -5 -3 -10 -1 -10 4 0 6 5 11 10 11 6 0 10 -2 10 -4z
m97 -11 c5 -4 2 -5 -6 0 -10 6 -13 4 -9 -7 4 -8 1 -15 -7 -15 -8 0 -11 7 -7
15 4 11 1 13 -8 7 -8 -5 -11 -4 -7 3 8 12 32 10 44 -3z m138 3 c14 2 11 -2 -9
-13 -17 -9 -37 -14 -45 -12 -9 3 -6 5 8 6 21 1 22 3 10 18 -12 15 -12 16 1 8
8 -5 24 -8 35 -7z m414 -9 c-22 -14 -33 -10 -19 6 7 8 17 12 22 9 6 -4 5 -10
-3 -15z m-749 -3 c0 -3 -4 -8 -10 -11 -5 -3 -10 -1 -10 4 0 6 5 11 10 11 6 0
10 -2 10 -4z m257 -12 c-3 -3 -12 -4 -19 -1 -8 3 -5 6 6 6 11 1 17 -2 13 -5z
m80 -15 c2 -16 -1 -19 -9 -11 -5 5 -7 15 -4 21 10 15 12 14 13 -10z m37 -19
c-6 -5 -24 21 -24 34 0 6 6 1 14 -10 8 -10 12 -21 10 -24z m120 18 c-4 -6 -10
-5 -15 3 -5 8 -9 9 -9 3 0 -5 -13 -20 -30 -32 -21 -16 -28 -18 -23 -7 3 10 1
15 -8 13 -7 -2 -15 5 -17 15 -2 9 1 17 7 17 6 0 8 -6 5 -13 -3 -8 4 -13 17
-14 17 -2 18 1 9 13 -9 10 -9 14 -1 14 6 0 11 -4 11 -10 0 -5 5 -10 11 -10 5
0 8 4 5 9 -7 11 14 20 31 13 7 -2 10 -9 7 -14z m-357 -3 c0 -8 -4 -12 -9 -9
-5 3 -6 10 -3 15 9 13 12 11 12 -6z m83 11 c0 -2 -7 -7 -16 -10 -8 -3 -12 -2
-9 4 6 10 25 14 25 6z m96 -35 c-3 -4 5 -13 17 -18 12 -6 23 -20 24 -32 2 -24
-12 -37 -23 -20 -5 8 -3 9 5 5 8 -6 11 -2 9 10 -2 11 -11 24 -20 29 -9 6 -16
13 -15 17 1 4 -7 14 -18 23 -19 16 -19 16 3 5 12 -6 20 -15 18 -19z m-321 10
c-9 -8 -36 -10 -30 -2 2 4 11 8 20 8 8 0 13 -3 10 -6z m280 0 c3 -5 0 -13 -6
-17 -7 -4 -9 -3 -5 4 3 6 -2 13 -11 15 -16 4 -16 5 -1 6 9 0 19 -3 23 -8z
m583 -11 c3 -9 0 -10 -9 -4 -12 6 -12 5 0 -9 8 -10 11 -20 8 -23 -3 -3 -12 3
-19 15 -7 12 -18 21 -25 21 -7 0 -13 4 -13 9 0 14 53 6 58 -9z m-721 -20 c-1
-21 -10 -18 -13 5 -1 8 2 15 6 15 5 0 8 -9 7 -20z m83 10 c0 -5 -5 -10 -11
-10 -5 0 -7 5 -4 10 3 6 8 10 11 10 2 0 4 -4 4 -10z m177 -6 c2 -6 -4 -17 -13
-25 -16 -13 -16 -12 -4 10 10 20 10 23 -2 18 -8 -3 -21 -1 -29 4 -9 5 -5 7 15
6 16 -1 31 -7 33 -13z m-99 -19 c-3 -3 -9 2 -12 12 -6 14 -5 15 5 6 7 -7 10
-15 7 -18z m-194 7 c3 -5 -1 -9 -9 -9 -8 0 -12 4 -9 9 3 4 7 8 9 8 2 0 6 -4 9
-8z m172 -17 c1 -9 -4 -11 -14 -7 -10 4 -12 7 -4 10 7 2 9 9 5 15 -3 7 -2 8 2
4 5 -4 10 -14 11 -22z m624 17 c0 -13 -40 -33 -53 -25 -6 4 -2 -6 11 -22 12
-15 20 -31 16 -34 -3 -3 -12 2 -19 12 -9 13 -14 15 -17 5 -3 -7 -5 2 -5 20 0
22 4 31 13 28 7 -3 18 2 24 10 13 15 30 19 30 6z m-930 -18 c0 -8 -19 -13 -24
-6 -3 5 1 9 9 9 8 0 15 -2 15 -3z m194 -2 c3 -5 -1 -9 -9 -9 -8 0 -12 4 -9 9
3 4 7 8 9 8 2 0 6 -4 9 -8z m790 -34 c-4 -71 -19 -138 -33 -138 -4 0 -7 9 -8
20 -1 13 2 18 9 14 7 -4 8 -2 4 5 -4 7 -4 20 0 29 12 30 15 54 4 47 -6 -4 -9
-14 -8 -22 2 -9 -3 -18 -11 -21 -8 -3 -11 0 -7 7 5 7 1 9 -10 4 -13 -5 -15 -3
-9 7 6 9 4 11 -5 5 -11 -7 -9 -12 8 -23 27 -18 30 -37 3 -23 -22 12 -32 5 -23
-17 5 -15 4 -16 -13 -2 -15 12 -17 12 -10 1 6 -11 4 -13 -8 -8 -9 3 -19 1 -23
-5 -4 -7 -3 -8 4 -4 7 4 12 5 12 2 0 -2 3 -13 6 -23 6 -15 4 -16 -7 -5 -7 6
-18 12 -23 12 -6 0 -4 -5 4 -10 11 -7 11 -10 2 -10 -7 0 -10 -5 -6 -11 4 -8 9
-7 16 2 7 11 8 10 4 -4 -4 -11 -2 -16 5 -11 6 3 5 -3 -2 -14 -7 -12 -16 -19
-19 -17 -3 2 -6 -7 -6 -21 0 -13 4 -24 8 -24 5 0 8 7 6 16 -2 10 2 19 8 21 16
6 12 -55 -4 -62 -8 -3 -17 -3 -20 0 -3 3 1 5 9 5 12 0 12 2 -1 10 -8 5 -15 25
-15 45 -2 43 -19 65 -37 46 -11 -10 -9 -11 6 -5 14 5 17 3 14 -7 -3 -8 -12
-12 -19 -10 -8 2 -20 4 -26 4 -16 0 -17 17 -2 17 22 0 70 42 65 57 -3 8 -2 11
3 8 5 -3 16 3 23 12 7 10 20 18 28 18 9 0 14 8 13 22 -2 19 20 38 35 29 4 -2
18 11 31 28 l25 31 -25 -22 c-27 -24 -49 -30 -49 -12 0 5 4 8 9 5 4 -3 19 6
31 19 13 14 26 25 30 25 3 0 5 -19 4 -42z m-498 12 c5 1 10 -4 12 -12 3 -11 2
-11 -6 0 -5 8 -12 13 -16 13 -20 -3 -26 0 -20 10 5 8 9 8 14 -1 4 -6 11 -11
16 -10z m-62 -32 c-8 -12 14 -10 39 4 20 10 21 10 8 -6 -16 -19 -56 -18 -56 1
0 6 -3 15 -7 19 -5 4 -8 -1 -8 -11 0 -10 -3 -16 -6 -12 -3 3 -3 15 1 27 6 20
7 20 20 3 7 -10 11 -21 9 -25z m-157 13 c-1 -15 -4 -17 -14 -9 -15 12 -17 22
-3 13 6 -3 10 -1 10 4 0 6 2 11 4 11 3 0 4 -9 3 -19z m188 1 c-3 -3 -11 0 -18
7 -9 10 -8 11 6 5 10 -3 15 -9 12 -12z m-334 -9 c13 -16 12 -17 -3 -4 -10 7
-18 15 -18 17 0 8 8 3 21 -13z m69 8 c0 -6 -4 -12 -8 -15 -5 -3 -9 1 -9 9 0 8
4 15 9 15 4 0 8 -4 8 -9z m160 1 c0 -4 -10 -9 -22 -9 -18 -2 -20 0 -8 7 18 12
30 13 30 2z m11 -29 c-12 -20 -14 -14 -5 12 4 9 9 14 11 11 3 -2 0 -13 -6 -23z
m169 17 c0 -5 -4 -10 -10 -10 -5 0 -10 5 -10 10 0 6 5 10 10 10 6 0 10 -4 10
-10z m-305 -38 c-3 -3 -11 0 -18 7 -9 10 -8 11 6 5 10 -3 15 -9 12 -12z m105
-7 c0 -2 -5 -7 -12 -11 -7 -5 -8 -3 -3 6 6 9 4 12 -7 8 -8 -4 -15 0 -15 7 0
10 5 11 19 4 10 -5 18 -12 18 -14z m99 10 c3 -3 -7 -4 -23 -1 -16 3 -31 8 -35
11 -3 3 7 4 23 1 16 -3 31 -8 35 -11z m-169 -9 c0 -2 -8 -10 -17 -17 -16 -13
-17 -12 -4 4 13 16 21 21 21 13z m125 -6 c3 -6 -1 -7 -9 -4 -18 7 -21 14 -7
14 6 0 13 -4 16 -10z m25 -15 c0 -8 -4 -15 -10 -15 -5 0 -7 7 -4 15 4 8 8 15
10 15 2 0 4 -7 4 -15z m40 5 c0 -5 -4 -10 -10 -10 -5 0 -10 5 -10 10 0 6 5 10
10 10 6 0 10 -4 10 -10z m-249 -17 c13 -16 12 -17 -3 -4 -10 7 -18 15 -18 17
0 8 8 3 21 -13z m149 13 c0 -2 -7 -7 -16 -10 -8 -3 -12 -2 -9 4 6 10 25 14 25
6z m141 -28 c13 -17 18 -29 12 -25 -6 4 -14 0 -17 -9 -3 -8 -10 -12 -16 -9
-16 10 -12 -5 9 -31 10 -13 22 -20 26 -16 5 4 5 1 1 -5 -10 -18 -26 -16 -26 2
0 8 -5 14 -12 13 -7 -2 -12 7 -12 19 -1 13 3 22 8 22 19 -2 25 26 10 48 -22
35 -8 27 17 -9z m440 1 c1 -5 3 -13 4 -19 1 -5 3 -15 4 -21 0 -5 6 -7 11 -4
14 9 12 -1 -5 -35 -9 -17 -13 -30 -10 -30 3 0 -2 -11 -11 -25 -9 -14 -20 -22
-25 -19 -5 3 -9 0 -9 -6 0 -6 -5 -8 -10 -5 -8 5 -7 11 1 21 9 11 9 14 -1 14
-8 0 -10 3 -7 7 4 3 2 12 -4 19 -6 8 -6 14 0 18 12 8 41 -3 41 -16 0 -6 -7 -8
-15 -4 -13 5 -14 2 -4 -17 15 -29 24 -37 16 -14 -5 12 -3 16 5 11 7 -5 8 -3 3
6 -5 8 -4 11 2 7 5 -3 9 4 8 16 -1 12 2 25 8 28 14 10 -3 31 -19 25 -20 -8
-17 11 4 24 9 6 11 10 3 8 -8 -2 -21 -15 -30 -28 -9 -13 -11 -21 -5 -18 6 4
11 1 11 -6 0 -8 -6 -12 -13 -9 -17 6 -11 58 7 58 8 0 13 8 13 17 -2 17 25 14
27 -3z m-824 -4 c0 -8 -4 -12 -9 -9 -5 3 -6 10 -3 15 9 13 12 11 12 -6z m143
1 c-7 -7 -13 -7 -20 0 -6 6 -3 10 10 10 13 0 16 -4 10 -10z m123 -6 c4 0 5 5
1 12 -4 7 -3 8 5 4 6 -4 9 -11 6 -15 -8 -14 -45 -20 -52 -9 -4 7 -1 8 7 3 10
-6 12 -4 6 11 -6 15 -5 17 5 7 7 -7 17 -13 22 -13z m95 -1 c2 -8 0 -10 -5 -4
-12 15 -43 15 -43 -1 0 -8 -5 -14 -10 -14 -7 0 -7 6 -1 18 12 22 53 22 59 1z
m-167 -16 c12 -16 12 -17 -2 -6 -9 7 -19 10 -22 6 -4 -3 -7 -1 -7 5 0 17 16
15 31 -5z m429 7 c0 -5 -4 -10 -10 -10 -5 0 -10 5 -10 10 0 6 5 10 10 10 6 0
10 -4 10 -10z m-287 -15 c-3 -9 -8 -14 -10 -11 -3 3 -2 9 2 15 9 16 15 13 8
-4z m-118 -23 c-3 -3 0 -10 5 -17 7 -8 5 -12 -5 -12 -8 0 -13 3 -10 5 3 3 0
10 -5 17 -7 8 -5 12 5 12 8 0 13 -3 10 -5z m65 4 c0 -2 -7 -7 -16 -10 -8 -3
-12 -2 -9 4 6 10 25 14 25 6z m30 -6 c0 -5 -5 -10 -11 -10 -5 0 -7 5 -4 10 3
6 8 10 11 10 2 0 4 -4 4 -10z m505 0 c-3 -5 -11 -10 -16 -10 -6 0 -7 5 -4 10
3 6 11 10 16 10 6 0 7 -4 4 -10z m-510 -32 c5 4 5 1 1 -5 -11 -20 -23 -15 -29
10 -5 20 -5 20 7 5 7 -10 17 -14 21 -10z m50 -21 c4 5 5 2 0 -5 -9 -17 -21 -5
-29 28 -5 23 -5 23 7 -3 7 -15 17 -24 22 -20z m-205 19 c0 -2 -8 -10 -17 -17
-16 -13 -17 -12 -4 4 13 16 21 21 21 13z m-110 -22 c0 -8 -19 -13 -24 -6 -3 5
1 9 9 9 8 0 15 -2 15 -3z m178 -13 c-7 -9 -13 -18 -15 -20 -1 -2 -1 5 0 16 0
11 7 20 14 20 10 0 10 -4 1 -16z m202 9 c0 -5 -5 -10 -11 -10 -5 0 -8 -4 -4
-9 9 -15 -29 -31 -46 -20 -12 8 -12 10 1 8 25 -2 40 1 39 9 -3 18 2 32 11 32
6 0 10 -4 10 -10z m-143 -15 c0 -8 -5 -11 -10 -8 -7 4 -8 -1 -4 -13 7 -18 6
-18 -6 -2 -11 14 -16 15 -27 5 -12 -10 -12 -9 -1 5 7 10 17 16 21 13 5 -3 11
-1 15 5 9 14 12 13 12 -5z m-200 -17 c2 -17 0 -19 -7 -8 -5 8 -6 18 -4 22 8
12 10 10 11 -14z m258 13 c3 -5 0 -13 -6 -17 -7 -4 -9 -3 -5 4 3 5 0 13 -6 15
-9 4 -10 6 -1 6 6 1 14 -3 18 -8z m-180 -30 c3 -5 2 -12 -3 -15 -5 -3 -9 1 -9
9 0 17 3 19 12 6z m99 -10 c3 -5 -2 -15 -12 -22 -15 -12 -16 -12 -5 2 7 9 10
19 6 22 -3 4 -4 7 0 7 3 0 8 -4 11 -9z m106 -1 c0 -5 -4 -10 -10 -10 -5 0 -10
5 -10 10 0 6 5 10 10 10 6 0 10 -4 10 -10z m48 -4 c-7 -8 -15 -12 -17 -11 -5
6 10 25 20 25 5 0 4 -6 -3 -14z m-103 -14 c-6 -4 -10 -22 -10 -39 1 -18 -2
-33 -7 -33 -5 0 -6 12 -4 27 3 15 1 32 -4 38 -6 7 -2 11 13 12 12 1 17 -1 12
-5z m75 -2 c0 -5 -8 -10 -17 -10 -15 0 -16 2 -3 10 19 12 20 12 20 0z m37 -9
c0 -11 -5 -17 -9 -15 -4 3 -8 0 -8 -7 0 -7 -3 -10 -6 -7 -4 5 16 48 23 48 1 0
1 -9 0 -19z m-472 -11 c-3 -5 -12 -10 -18 -10 -7 0 -6 4 3 10 19 12 23 12 15
0z m565 -7 c0 -3 -6 -3 -14 0 -7 3 -23 -1 -34 -8 -10 -8 -22 -11 -26 -8 -3 3
-6 -4 -6 -16 0 -12 4 -20 8 -17 4 2 14 0 22 -5 11 -7 8 -8 -10 -6 -18 3 -25
10 -25 25 0 12 5 23 10 23 6 1 18 7 29 14 16 12 46 11 46 -2z m-250 -17 c-7
-7 -13 -7 -20 0 -6 6 -3 10 10 10 13 0 16 -4 10 -10z m120 4 c0 -5 -2 -10 -4
-10 -3 0 -8 5 -11 10 -3 6 -1 10 4 10 6 0 11 -4 11 -10z m107 -32 c-3 -7 -5
-2 -5 12 0 14 2 19 5 13 2 -7 2 -19 0 -25z m-374 7 c4 -8 3 -16 -1 -19 -4 -3
-9 4 -9 15 -2 23 3 25 10 4z m254 -2 c2 -6 -1 -14 -6 -18 -7 -4 -8 0 -4 11 4
11 3 15 -5 10 -6 -3 -13 -2 -16 3 -4 5 2 8 11 7 9 -2 19 -8 20 -13z m75 -48
c3 3 13 -6 22 -19 15 -24 15 -26 -7 -36 -19 -10 -20 -9 -6 2 15 12 15 16 3 33
-8 10 -14 15 -14 9 -1 -12 -40 38 -40 51 0 6 8 -2 18 -18 10 -15 21 -25 24
-22z m-52 16 c0 -5 -7 -12 -16 -15 -14 -5 -15 -4 -4 9 14 17 20 19 20 6z m107
-21 c-1 -11 -5 -20 -10 -20 -5 0 -6 9 -2 20 5 16 3 19 -12 14 -14 -5 -15 -4
-3 4 18 14 29 7 27 -18z m-184 5 c-3 -9 -8 -14 -10 -11 -3 3 -2 9 2 15 9 16
15 13 8 -4z m107 -25 c0 -5 -4 -10 -10 -10 -5 0 -10 5 -10 10 0 6 5 10 10 10
6 0 10 -4 10 -10z m144 -15 c-4 -8 -11 -15 -16 -15 -6 0 -5 6 2 15 7 8 14 15
16 15 2 0 1 -7 -2 -15z m-294 0 c0 -2 -6 -8 -13 -14 -10 -8 -14 -7 -14 2 0 8
6 14 14 14 7 0 13 -1 13 -2z m27 -15 c1 -11 -2 -20 -7 -20 -6 0 -7 17 -1 38 3
8 7 -1 8 -18z m49 8 c3 -4 -1 -5 -10 -4 -8 1 -18 5 -22 8 -3 4 1 5 10 4 8 -1
18 -5 22 -8z m84 -8 c-6 -11 -13 -20 -16 -20 -2 0 0 9 6 20 6 11 13 20 16 20
2 0 0 -9 -6 -20z m104 -6 c3 -8 2 -13 -3 -10 -5 3 -12 -1 -15 -10 -3 -9 -11
-12 -18 -8 -8 5 -9 2 -5 -9 3 -10 2 -17 -4 -17 -6 0 -9 8 -7 18 2 9 10 16 17
14 9 -2 11 3 7 13 -3 9 -2 13 4 10 6 -3 10 -1 10 4 0 16 7 13 14 -5z m-314 -4
c0 -5 -2 -10 -4 -10 -3 0 -8 5 -11 10 -3 6 -1 10 4 10 6 0 11 -4 11 -10z m173
-4 c4 -10 1 -13 -8 -9 -8 3 -12 9 -9 14 7 12 11 11 17 -5z m92 4 c-3 -5 -12
-10 -18 -10 -7 0 -6 4 3 10 19 12 23 12 15 0z m-228 -25 c0 -8 -4 -12 -9 -9
-5 3 -6 10 -3 15 9 13 12 11 12 -6z m91 -12 c-9 -10 -14 -26 -13 -36 2 -9 0
-15 -5 -12 -15 9 8 65 28 65 3 0 -2 -8 -10 -17z m106 4 c-3 -8 -12 -14 -21
-14 -13 0 -13 2 3 14 10 7 19 13 21 13 1 0 0 -6 -3 -13z m-259 -26 c3 -5 2
-12 -3 -15 -5 -3 -9 1 -9 9 0 17 3 19 12 6z m45 -1 c0 -5 -5 -10 -11 -10 -5 0
-7 5 -4 10 3 6 8 10 11 10 2 0 4 -4 4 -10z m240 -10 c6 -11 8 -20 6 -20 -3 0
-10 9 -16 20 -6 11 -8 20 -6 20 3 0 10 -9 16 -20z m146 8 c4 -7 4 -10 -1 -6
-11 11 -36 -12 -28 -25 3 -6 1 -7 -5 -3 -9 5 -8 12 1 26 14 23 23 25 33 8z
m-209 -11 c0 -7 -9 -14 -19 -14 -10 -1 -18 3 -18 8 0 6 4 8 9 4 5 -3 12 -1 16
5 8 13 12 13 12 -3z m38 3 c3 -6 -1 -7 -9 -4 -18 7 -21 14 -7 14 6 0 13 -4 16
-10z m105 -10 c0 -5 -4 -10 -10 -10 -5 0 -10 5 -10 10 0 6 5 10 10 10 6 0 10
-4 10 -10z m-77 -40 c4 0 5 5 2 10 -3 6 -4 10 -1 10 16 0 13 -21 -5 -30 -17
-10 -20 -9 -14 1 6 9 3 10 -11 5 -10 -4 -15 -4 -11 0 4 4 1 14 -6 23 -9 12 -7
11 13 -2 13 -9 28 -17 33 -17z m-163 17 c0 -2 -10 -12 -22 -23 l-23 -19 19 23
c18 21 26 27 26 19z m264 -5 c3 -5 -1 -9 -9 -9 -8 0 -15 4 -15 9 0 4 4 8 9 8
6 0 12 -4 15 -8z m-73 -45 c-8 -8 -14 -7 -23 2 -11 10 -9 11 6 5 15 -6 17 -4
11 6 -6 9 -4 11 4 5 9 -5 10 -10 2 -18z m39 3 c-6 -11 -13 -20 -16 -20 -2 0 0
9 6 20 6 11 13 20 16 20 2 0 0 -9 -6 -20z m-88 -18 c4 -12 -1 -18 -13 -18 -13
0 -15 4 -8 13 6 7 7 18 3 24 -4 7 -3 9 3 6 6 -4 13 -15 15 -25z m32 -38 c3 -8
2 -12 -4 -9 -6 3 -10 10 -10 16 0 14 7 11 14 -7z m-24 -10 c0 0 -10 -9 -22
-20 -16 -13 -19 -14 -10 -2 10 13 10 17 0 21 -7 3 -3 4 10 4 12 -1 22 -2 22
-3z m-210 -18 c0 -3 -4 -8 -10 -11 -5 -3 -10 -1 -10 4 0 6 5 11 10 11 6 0 10
-2 10 -4z m180 -30 c0 -2 -8 -10 -17 -17 -16 -13 -17 -12 -4 4 13 16 21 21 21
13z m-295 -16 c-3 -5 -12 -10 -18 -10 -7 0 -6 4 3 10 19 12 23 12 15 0z m190
-8 c-3 -3 -11 0 -18 7 -9 10 -8 11 6 5 10 -3 15 -9 12 -12z m10 -32 c3 -6 -1
-7 -9 -4 -18 7 -21 14 -7 14 6 0 13 -4 16 -10z"/>
<path d="M5507 5984 c3 -8 -3 -12 -16 -11 -12 1 -21 6 -21 11 0 6 -7 1 -15
-10 -9 -14 -23 -20 -39 -19 -25 3 -25 3 -10 -27 11 -21 12 -33 5 -42 -8 -9 -6
-12 7 -11 9 0 23 4 30 9 7 4 12 2 12 -6 0 -11 2 -10 9 0 14 22 23 -16 10 -40
-10 -19 -9 -20 7 -13 11 4 27 7 37 7 15 -1 16 2 7 13 -9 11 -7 13 7 10 10 -2
22 -4 27 -4 6 -1 1 -8 -10 -16 -18 -14 -18 -15 0 -9 16 6 17 4 11 -17 -7 -21
-6 -22 8 -10 9 7 14 17 11 22 -3 5 2 6 11 2 9 -3 12 -9 7 -12 -5 -3 -8 -14 -6
-24 2 -15 0 -16 -12 -6 -9 7 -14 8 -14 1 0 -6 4 -13 10 -17 5 -3 7 -13 4 -23
-4 -12 -3 -14 3 -4 8 10 12 10 23 -2 7 -9 17 -13 23 -9 5 3 7 1 3 -5 -3 -6 -1
-14 4 -17 7 -5 5 -12 -7 -22 -10 -8 -12 -11 -4 -7 9 5 12 3 7 -5 -10 -16 13
-43 31 -37 9 4 11 1 7 -6 -5 -7 -3 -8 6 -3 8 5 11 4 6 -3 -4 -6 -12 -9 -19 -7
-7 3 -19 1 -27 -4 -12 -9 -12 -12 2 -28 9 -10 17 -22 18 -28 1 -5 6 -9 10 -8
4 1 5 -7 2 -19 -3 -15 -2 -19 7 -14 6 4 8 12 5 18 -5 7 -2 8 6 3 9 -6 11 -4 6
4 -5 7 -1 20 7 29 14 16 14 21 0 50 -14 28 -24 36 -44 34 -10 -1 -7 33 5 48
11 13 12 22 7 46 0 4 -8 1 -16 -6 -14 -12 -20 -7 -16 14 1 5 -4 4 -13 -3 -22
-19 -32 6 -11 29 14 15 15 23 6 33 -6 8 -7 18 -3 22 4 5 1 5 -6 1 -15 -9 -45
12 -36 25 5 9 -9 13 -36 9 -8 -1 -12 1 -8 5 4 4 -1 18 -11 32 -20 25 -21 60
-1 55 7 -1 9 3 4 10 -4 7 5 2 19 -11 15 -14 24 -27 21 -30 -3 -3 -8 -1 -12 5
-6 9 -14 10 -39 5 -4 0 2 -7 13 -15 16 -13 22 -13 42 0 12 8 22 12 22 8 0 -4
7 -1 15 6 11 9 12 16 4 26 -6 7 -8 17 -5 22 3 5 -1 9 -8 9 -8 0 -12 -6 -9 -13
5 -14 -14 -13 -37 1 -22 14 -49 13 -43 -1z m75 -19 c21 0 25 -18 4 -21 -8 -1
-25 10 -38 24 -15 18 -17 21 -4 12 11 -8 27 -15 38 -15z m-97 -5 c-3 -4 6 -23
19 -42 23 -35 23 -35 4 -59 -11 -13 -17 -19 -14 -12 9 16 -15 67 -25 52 -4 -8
-9 -4 -14 10 -3 11 -11 21 -16 21 -12 0 -11 -14 2 -27 8 -8 7 -13 -2 -18 -7
-5 -10 -4 -5 3 3 6 1 14 -5 17 -5 4 -8 13 -5 20 3 8 2 16 -2 18 -4 2 -1 2 6 1
17 -4 43 6 37 15 -2 4 2 8 10 8 8 0 12 -4 10 -7z m126 -173 c-10 -9 -11 -8 -5
6 3 10 9 15 12 12 3 -3 0 -11 -7 -18z m54 -64 c-2 -10 -4 -19 -4 -21 -1 -2 -6
0 -11 3 -8 5 -7 11 1 21 15 18 18 18 14 -3z m32 -110 c-4 -3 -2 -12 3 -18 7
-9 5 -17 -7 -26 -14 -12 -16 -12 -8 0 6 11 4 13 -8 8 -20 -8 -43 18 -26 29 7
4 15 2 17 -4 4 -13 23 -17 21 -4 -2 13 1 22 8 22 3 0 3 -3 0 -7z"/>
<path d="M5460 5940 c-11 -7 -11 -10 -2 -10 7 0 10 -5 6 -12 -4 -7 -3 -8 4 -4
6 4 17 -5 25 -20 8 -15 17 -23 20 -17 3 5 -5 21 -18 35 -13 14 -21 29 -18 32
9 9 0 7 -17 -4z"/>
<path d="M5476 5809 c-22 -10 -41 -21 -44 -24 -7 -6 18 -35 30 -35 6 0 5 7 -2
15 -10 13 -11 18 -1 28 10 9 11 9 6 -3 -4 -11 1 -16 15 -16 15 0 18 5 14 18
-4 13 -1 17 13 15 32 -5 43 -18 39 -43 -3 -17 -1 -22 7 -18 7 3 4 -1 -6 -9
-11 -9 -14 -18 -8 -21 5 -4 12 -2 16 4 4 6 10 8 14 6 11 -7 7 26 -8 52 -6 12
-9 28 -5 34 4 7 3 8 -5 4 -6 -4 -17 -3 -24 2 -8 7 -24 4 -51 -9z"/>
<path d="M5505 5789 c3 -5 1 -18 -6 -30 -10 -19 -9 -21 6 -16 9 4 21 7 26 7 6
0 7 5 4 10 -4 6 -11 7 -17 4 -7 -4 -8 -2 -4 5 4 6 12 8 18 5 6 -4 9 -1 6 6 -2
7 -12 14 -21 16 -9 1 -15 -2 -12 -7z"/>
<path d="M5473 5758 c3 -14 -50 -21 -59 -7 -4 6 -11 6 -20 -2 -17 -14 -18 -29
-3 -29 5 0 7 5 4 10 -3 6 -1 10 4 10 6 0 11 -5 11 -11 0 -5 4 -8 8 -5 5 3 19
-8 31 -25 12 -17 28 -28 34 -26 7 2 20 -2 30 -11 9 -8 17 -10 17 -5 0 14 -27
36 -37 30 -5 -3 -17 1 -28 9 -10 8 -15 14 -9 14 5 0 2 5 -6 10 -11 8 -9 9 11
6 23 -4 27 -1 27 20 0 13 -4 24 -9 24 -5 0 -8 -5 -6 -12z"/>
<path d="M5500 5725 c-7 -8 -17 -12 -22 -8 -6 3 -8 0 -6 -8 3 -8 12 -13 21
-11 8 1 24 -9 35 -23 13 -16 23 -22 27 -15 4 7 18 -6 33 -29 25 -38 27 -40 37
-21 6 12 15 17 21 13 5 -4 -2 4 -15 19 -20 23 -22 30 -11 43 11 13 11 19 -3
32 -14 14 -18 14 -33 2 -9 -8 -20 -13 -23 -11 -3 2 -7 -1 -9 -7 -6 -17 19 -13
42 7 20 16 20 16 7 0 -10 -13 -10 -18 -2 -18 7 0 9 -5 5 -11 -4 -8 -9 -7 -15
2 -5 8 -9 9 -9 3 0 -6 -10 -10 -22 -9 -13 2 -22 8 -20 15 1 7 -2 18 -8 24 -5
7 -7 16 -3 19 3 4 2 7 -4 7 -6 0 -16 -7 -23 -15z m25 -15 c3 -6 -1 -7 -9 -4
-18 7 -21 14 -7 14 6 0 13 -4 16 -10z m95 -66 c6 -6 3 -10 -9 -11 -11 -1 -22
4 -24 12 -6 15 18 14 33 -1z"/>
<path d="M5550 5599 c0 -5 5 -7 10 -4 6 3 10 8 10 11 0 2 -4 4 -10 4 -5 0 -10
-5 -10 -11z"/>
<path d="M5705 5534 c-26 -35 -29 -36 -42 -19 -7 11 -13 15 -13 11 0 -5 -6 -3
-14 3 -10 8 -21 8 -40 1 -26 -10 -26 -10 -11 -40 9 -17 20 -28 25 -25 14 8 12
26 -1 23 -6 -2 -13 5 -14 14 -2 11 2 15 13 11 10 -4 13 -2 8 5 -4 7 -2 12 4
12 7 0 9 -8 4 -22 -6 -21 -5 -22 11 -8 11 8 16 10 12 4 -5 -8 5 -11 28 -11 19
1 35 5 35 9 0 4 5 8 12 8 6 0 8 -3 5 -6 -3 -4 -2 -16 4 -28 9 -19 9 -20 -4 -3
-13 16 -15 16 -21 2 -4 -11 -2 -14 6 -9 7 5 8 3 3 -6 -6 -9 -4 -11 6 -5 12 8
12 6 0 -8 -9 -11 -10 -17 -2 -17 6 0 11 4 11 8 0 4 9 8 20 9 11 1 20 -2 20 -8
0 -5 -3 -8 -7 -8 -20 3 -36 -2 -29 -8 11 -11 30 -10 37 0 4 5 10 4 13 -2 4 -6
2 -11 -4 -11 -6 0 -8 -5 -4 -11 4 -8 9 -7 15 2 6 10 9 10 9 2 0 -6 -4 -14 -10
-18 -5 -3 -7 -13 -4 -23 4 -12 3 -14 -3 -4 -8 10 -12 10 -22 -2 -7 -8 -10 -20
-7 -25 4 -5 2 -12 -4 -16 -5 -3 -10 -11 -10 -17 0 -7 4 -7 13 1 8 6 18 7 22 3
5 -4 5 -1 1 5 -4 7 3 26 15 43 19 25 25 28 38 17 10 -7 9 -3 -3 10 -15 18 -16
26 -7 37 10 12 9 14 -6 12 -18 -3 -70 42 -65 57 1 4 -4 7 -10 7 -9 0 -8 4 2
10 8 5 10 10 4 10 -7 0 -10 13 -9 30 1 17 1 30 0 30 -1 0 -15 -16 -30 -36z
m25 -8 c0 -2 -7 -7 -16 -10 -8 -3 -12 -2 -9 4 6 10 25 14 25 6z"/>
<path d="M5630 5482 c0 -6 6 -13 13 -15 8 -4 9 -8 1 -14 -11 -9 -13 -52 -2
-68 4 -6 5 -23 4 -38 -3 -29 13 -44 46 -43 20 1 25 19 7 25 -6 2 -9 -1 -6 -6
3 -5 0 -10 -6 -10 -7 0 -14 9 -14 20 -1 12 3 17 13 13 19 -7 45 4 38 16 -3 5
-11 5 -19 -2 -9 -8 -17 -6 -29 5 -20 21 -21 20 10 40 17 11 24 12 18 4 -5 -8
-10 -22 -11 -32 -3 -16 -1 -16 20 -2 13 8 27 12 32 8 4 -5 3 2 -3 13 -17 32
-40 37 -71 15 -21 -15 -28 -17 -28 -6 0 8 4 12 8 10 4 -3 7 5 6 18 0 12 2 29
5 37 2 8 3 11 0 7 -2 -4 -10 -3 -18 4 -9 7 -14 8 -14 1z m100 -82 c0 -5 -4
-10 -10 -10 -5 0 -10 5 -10 10 0 6 5 10 10 10 6 0 10 -4 10 -10z"/>
<path d="M5674 5464 c-21 -31 -7 -49 20 -28 11 8 14 14 7 14 -8 0 -10 7 -6 20
9 28 -1 25 -21 -6z"/>
<path d="M5750 5401 c0 -6 6 -11 13 -11 8 0 7 -3 -3 -9 -8 -6 -18 -7 -24 -4
-5 4 -7 -1 -3 -11 4 -10 1 -19 -8 -23 -11 -4 -13 -9 -5 -18 7 -9 6 -16 -5 -25
-21 -17 -19 -25 10 -44 23 -15 25 -15 22 1 -1 10 -6 24 -11 31 -4 7 -2 20 6
29 9 12 9 15 1 9 -22 -12 -14 6 12 34 23 24 24 28 10 40 -10 8 -15 9 -15 1z
m-20 -121 c0 -5 -5 -10 -11 -10 -5 0 -7 5 -4 10 3 6 8 10 11 10 2 0 4 -4 4
-10z"/>
<path d="M5809 5294 c-8 -10 -16 -11 -29 -4 -13 7 -21 7 -25 0 -3 -5 -3 -10 2
-11 4 0 18 -2 30 -5 13 -2 23 3 27 12 3 8 10 13 15 9 5 -3 12 -2 15 3 8 14
-23 10 -35 -4z"/>
<path d="M5585 5280 c-3 -5 1 -10 10 -10 9 0 13 5 10 10 -3 6 -8 10 -10 10 -2
0 -7 -4 -10 -10z"/>
<path d="M5759 5256 c17 -20 -8 -27 -35 -9 -21 13 -54 9 -54 -7 0 -5 8 -11 18
-15 11 -3 24 -17 30 -30 6 -14 17 -25 23 -25 7 0 5 8 -6 20 -10 11 -14 20 -9
20 5 0 2 5 -6 10 -11 7 -9 8 11 6 13 -1 30 -6 37 -10 8 -5 11 0 8 16 -3 13 -5
26 -5 31 -1 4 -6 7 -12 7 -8 0 -8 -4 0 -14z"/>
<path d="M5785 5235 c1 -19 5 -35 11 -34 5 0 8 6 6 14 -1 7 1 16 6 19 5 3 8
-6 6 -19 -3 -29 4 -32 22 -7 13 16 14 16 7 -2 -5 -14 -3 -17 7 -11 9 5 11 4 6
-4 -4 -6 -12 -8 -18 -5 -6 4 -8 3 -5 -3 3 -5 0 -10 -8 -10 -8 0 -15 4 -15 9 0
5 -5 6 -10 3 -8 -5 -7 -11 1 -21 15 -19 2 -18 -18 1 -15 16 -33 12 -33 -7 0
-6 3 -8 6 -5 4 3 16 1 27 -5 16 -8 23 -7 32 6 11 15 13 15 26 0 11 -13 11 -17
-2 -24 -9 -5 -14 -21 -13 -37 2 -41 3 -43 15 -43 5 0 7 5 4 10 -9 15 11 12 24
-4 7 -9 8 -17 2 -20 -5 -3 -7 -16 -4 -29 3 -16 2 -18 -5 -8 -6 8 -12 9 -16 3
-12 -20 17 -25 31 -6 8 11 10 20 4 22 -6 2 5 17 24 33 19 17 34 34 34 37 -1 4
0 10 1 15 1 4 3 11 4 17 0 5 10 16 21 25 20 16 19 16 -2 5 -13 -6 -23 -8 -23
-5 0 3 -9 1 -19 -5 -13 -7 -22 -7 -26 0 -3 5 -12 10 -18 10 -8 0 -7 -3 2 -9
11 -7 11 -9 0 -13 -10 -3 -10 -6 -1 -12 7 -4 12 -2 12 3 0 8 6 7 19 0 18 -12
18 -12 -1 -31 -10 -10 -16 -23 -13 -28 3 -5 -1 -7 -9 -4 -13 5 -12 9 4 27 11
11 17 23 14 26 -3 3 -14 -4 -24 -17 -11 -13 -21 -18 -25 -12 -3 5 -1 10 6 10
7 0 9 3 5 7 -4 5 -14 -1 -22 -11 -8 -11 -14 -15 -14 -9 0 7 5 15 11 19 8 4 7
9 -2 16 -10 7 -7 7 8 3 18 -5 21 -3 18 14 -2 12 3 25 13 31 14 8 14 9 2 10
-12 0 -12 2 -2 9 11 7 11 9 -2 14 -10 4 -13 13 -9 23 4 11 2 15 -4 11 -5 -3
-25 5 -43 18 -19 14 -34 25 -35 25 0 0 0 -16 0 -35z m80 -62 c-2 -10 -4 -19
-4 -21 -1 -2 -6 0 -11 3 -8 5 -7 11 1 21 15 18 18 18 14 -3z m72 -47 c0 -8 -6
-12 -15 -9 -11 5 -11 7 0 14 7 5 13 9 14 9 0 0 1 -6 1 -14z m-7 -40 c0 -2 -7
-9 -15 -16 -13 -11 -14 -10 -9 4 5 14 24 23 24 12z"/>
<path d="M5741 5211 c-11 -7 -11 -10 0 -17 8 -5 22 -10 31 -11 17 -3 17 -2 1
17 -10 11 -18 20 -18 20 0 0 -6 -4 -14 -9z"/>
<path d="M5630 5200 c-8 -5 -12 -12 -9 -15 4 -3 12 1 19 10 14 17 11 19 -10 5z"/>
<path d="M5726 5143 c-11 -12 -6 -18 17 -19 27 -2 33 21 6 23 -9 1 -20 -1 -23
-4z"/>
<path d="M5797 5043 c-4 -3 -7 -11 -7 -17 0 -6 5 -5 12 2 6 6 9 14 7 17 -3 3
-9 2 -12 -2z"/>
<path d="M5750 5800 c0 -5 5 -10 11 -10 5 0 7 5 4 10 -3 6 -8 10 -11 10 -2 0
-4 -4 -4 -10z"/>
<path d="M5936 5768 c3 -5 10 -6 15 -3 13 9 11 12 -6 12 -8 0 -12 -4 -9 -9z"/>
<path d="M5890 5740 c6 -11 13 -20 16 -20 2 0 0 9 -6 20 -6 11 -13 20 -16 20
-2 0 0 -9 6 -20z"/>
<path d="M5920 5722 c0 -13 29 -48 30 -35 0 6 -5 15 -10 18 -6 4 -8 11 -5 16
4 5 1 9 -4 9 -6 0 -11 -4 -11 -8z"/>
<path d="M5985 5656 c-19 -14 -19 -15 9 -41 15 -14 31 -23 34 -20 6 6 -1 12
-38 35 -13 8 -12 11 5 24 25 19 16 21 -10 2z"/>
<path d="M5980 5602 c0 -11 27 -42 37 -42 3 0 -2 10 -13 23 -10 12 -20 24 -21
26 -2 2 -3 -1 -3 -7z"/>
<path d="M6031 5571 c-1 -8 -9 -20 -18 -27 -10 -7 -13 -14 -7 -14 17 0 37 27
31 42 -4 10 -6 10 -6 -1z"/>
<path d="M5796 5492 c-3 -5 1 -9 9 -9 8 0 12 4 9 9 -3 4 -7 8 -9 8 -2 0 -6 -4
-9 -8z"/>
<path d="M5876 5327 c3 -10 9 -15 12 -12 3 3 0 11 -7 18 -10 9 -11 8 -5 -6z"/>
<path d="M5792 5676 c10 -18 12 -18 23 -3 6 9 15 15 18 12 4 -3 5 -2 2 2 -3 3
-16 7 -29 8 -21 0 -23 -2 -14 -19z"/>
<path d="M5865 5649 c-11 -16 -1 -19 13 -3 7 8 8 14 3 14 -5 0 -13 -5 -16 -11z"/>
<path d="M5810 5561 c0 -6 4 -12 8 -15 5 -3 9 1 9 9 0 8 -4 15 -9 15 -4 0 -8
-4 -8 -9z"/>
<path d="M5897 5294 c-7 -8 15 -44 27 -44 5 0 2 8 -7 18 -10 10 -14 22 -10 25
3 4 4 7 1 7 -2 0 -7 -3 -11 -6z"/>
<path d="M735 3249 c-108 -38 -194 -131 -229 -249 -17 -58 -20 -363 -11 -1200
2 -184 5 -465 5 -625 1 -159 6 -312 11 -339 32 -171 168 -300 329 -311 61 -4
1048 -13 1775 -16 309 -1 322 0 380 22 106 40 197 151 226 276 7 34 9 291 4
873 -11 1347 -14 1553 -22 1561 -8 8 -436 14 -1718 24 -682 5 -691 5 -750 -16z
m1305 -34 c481 -4 922 -7 980 -7 145 1 148 0 147 -45 0 -21 4 -447 8 -948 4
-500 8 -1007 9 -1125 1 -118 -2 -237 -7 -264 -18 -104 -90 -201 -183 -246
l-49 -25 -415 1 c-1235 5 -1714 12 -1758 27 -65 23 -121 66 -159 123 -63 95
-63 89 -68 743 -13 1460 -13 1473 1 1528 31 120 128 218 240 241 20 4 113 7
208 6 94 -1 565 -6 1046 -9z"/>
<path d="M1792 2978 c-110 -201 -260 -397 -452 -589 -198 -199 -343 -309 -547
-414 -53 -27 -90 -52 -87 -59 2 -6 25 -22 50 -35 62 -33 222 -140 319 -214
287 -217 540 -494 708 -774 34 -57 67 -103 72 -103 6 0 23 26 39 58 151 312
482 664 851 907 61 40 135 85 165 102 30 16 56 36 58 44 1 8 -17 24 -42 38
-99 52 -297 192 -411 291 -268 233 -490 497 -627 750 -19 35 -40 66 -45 67 -6
2 -29 -29 -51 -69z m55 -133 c0 -8 -4 -12 -9 -9 -5 3 -6 10 -3 15 9 13 12 11
12 -6z m-27 -45 c-8 -5 -19 -10 -25 -10 -5 0 -3 5 5 10 8 5 20 10 25 10 6 0 3
-5 -5 -10z m30 -44 c-7 -7 -13 -7 -20 0 -6 6 -3 10 10 10 13 0 16 -4 10 -10z
m80 -90 c0 -3 -4 -8 -10 -11 -5 -3 -10 -1 -10 4 0 6 5 11 10 11 6 0 10 -2 10
-4z m16 -51 c-1 -8 -5 -17 -8 -21 -5 -4 -4 16 1 34 3 9 9 -1 7 -13z m-51 -55
c-3 -5 -12 -10 -18 -10 -7 0 -6 4 3 10 19 12 23 12 15 0z m92 -9 c0 -11 -5
-18 -9 -15 -4 3 -5 11 -1 19 7 21 12 19 10 -4z m161 -16 c-3 -3 -9 2 -12 12
-6 14 -5 15 5 6 7 -7 10 -15 7 -18z m19 -105 c-2 -11 -6 -22 -9 -26 -4 -3 -5
2 -3 13 2 10 4 21 4 26 1 4 3 7 6 7 3 0 4 -9 2 -20z m-177 -6 c0 -8 -19 -13
-24 -6 -3 5 1 9 9 9 8 0 15 -2 15 -3z m60 1 c0 -7 -30 -13 -34 -7 -3 4 4 9 15
9 10 1 19 0 19 -2z m31 -32 c13 -16 12 -17 -3 -4 -10 7 -18 15 -18 17 0 8 8 3
21 -13z m-36 -12 c-9 -8 -36 -10 -30 -2 2 4 11 8 20 8 8 0 13 -3 10 -6z m102
-14 c0 -8 -6 -14 -14 -14 -9 0 -10 4 -2 14 6 7 12 13 14 13 1 0 2 -6 2 -13z
m34 -14 c13 -16 12 -17 -3 -4 -10 7 -18 15 -18 17 0 8 8 3 21 -13z m133 9 c3
-5 -1 -9 -9 -9 -8 0 -12 4 -9 9 3 4 7 8 9 8 2 0 6 -4 9 -8z m-308 -38 c1 -9 0
-13 -4 -10 -3 4 -7 14 -8 22 -1 9 0 13 4 10 3 -4 7 -14 8 -22z m244 22 c0 -2
-7 -7 -16 -10 -8 -3 -12 -2 -9 4 6 10 25 14 25 6z m-185 -45 c-9 -8 -36 -10
-30 -2 2 4 11 8 20 8 8 0 13 -3 10 -6z m100 -9 c-3 -3 -11 0 -18 7 -9 10 -8
11 6 5 10 -3 15 -9 12 -12z m209 6 c-3 -4 -11 -5 -19 -1 -21 7 -19 12 4 10 11
0 18 -5 15 -9z m-130 -24 c3 -8 2 -12 -4 -9 -6 3 -10 10 -10 16 0 14 7 11 14
-7z m143 1 c0 -8 -4 -12 -9 -9 -5 3 -6 10 -3 15 9 13 12 11 12 -6z m-100 -22
c0 -9 -4 -10 -14 -2 -7 6 -13 12 -13 14 0 1 6 2 13 2 8 0 14 -6 14 -14z m40
11 c-3 -3 -12 -4 -19 -1 -8 3 -5 6 6 6 11 1 17 -2 13 -5z m109 -6 c4 -6 3 -8
-3 -5 -6 4 -13 0 -17 -8 -6 -17 -26 -20 -26 -4 0 5 4 8 9 5 5 -3 11 1 15 9 7
18 12 19 22 3z m-212 -28 c-6 -6 -10 -3 -10 10 0 13 4 16 10 10 7 -7 7 -13 0
-20z m138 18 c-13 -13 -64 -20 -56 -7 2 4 13 6 24 4 11 -2 22 0 25 6 4 5 9 9
13 9 3 0 1 -5 -6 -12z m-101 -15 c13 -16 12 -17 -3 -4 -10 7 -18 15 -18 17 0
8 8 3 21 -13z m189 -7 c0 -3 -4 -8 -10 -11 -5 -3 -10 -1 -10 4 0 6 5 11 10 11
6 0 10 -2 10 -4z m-39 -33 c-12 -20 -14 -14 -5 12 4 9 9 14 11 11 3 -2 0 -13
-6 -23z m-200 4 c-6 -8 -7 -18 -3 -22 4 -5 1 -5 -6 -1 -10 6 -10 11 -1 22 6 8
14 14 16 14 3 0 0 -6 -6 -13z m50 -10 c-10 -9 -11 -8 -5 6 3 10 9 15 12 12 3
-3 0 -11 -7 -18z m204 13 c-3 -5 -11 -10 -16 -10 -6 0 -7 5 -4 10 3 6 11 10
16 10 6 0 7 -4 4 -10z m-120 -10 c4 -6 -1 -7 -11 -3 -10 4 -15 2 -11 -4 3 -5
0 -10 -8 -10 -11 0 -12 4 -4 14 14 15 26 17 34 3z m-195 -10 c0 -5 -5 -10 -11
-10 -5 0 -7 5 -4 10 3 6 8 10 11 10 2 0 4 -4 4 -10z m211 -13 c-10 -9 -11 -8
-5 6 3 10 9 15 12 12 3 -3 0 -11 -7 -18z m129 13 c0 -5 -4 -10 -10 -10 -5 0
-10 5 -10 10 0 6 5 10 10 10 6 0 10 -4 10 -10z m-30 -14 c0 -2 -7 -6 -15 -10
-8 -3 -15 -1 -15 4 0 6 7 10 15 10 8 0 15 -2 15 -4z m53 -3 c-16 -6 -17 -24
-1 -20 6 1 14 -6 16 -15 2 -10 -1 -18 -7 -18 -6 0 -7 7 -4 17 4 10 2 14 -5 9
-13 -8 -26 10 -17 24 3 6 12 10 18 9 9 0 9 -2 0 -6z m32 -3 c3 -5 1 -10 -4
-10 -6 0 -11 5 -11 10 0 6 2 10 4 10 3 0 8 -4 11 -10z m-395 -14 c0 -3 -4 -8
-10 -11 -5 -3 -10 -1 -10 4 0 6 5 11 10 11 6 0 10 -2 10 -4z m333 -11 c4 -8 3
-16 -1 -19 -4 -3 -9 4 -9 15 -2 23 3 25 10 4z m-177 -10 c-1 -8 -5 -17 -8 -21
-5 -4 -4 16 1 34 3 9 9 -1 7 -13z m56 3 c-14 -14 -44 -20 -36 -7 3 5 9 7 14 4
5 -3 11 -1 15 5 3 5 9 10 13 10 3 0 1 -5 -6 -12z m45 6 c-3 -3 -12 -4 -19 -1
-8 3 -5 6 6 6 11 1 17 -2 13 -5z m183 -27 c8 -1 25 -10 38 -18 l23 -16 -27 0
c-18 0 -22 2 -13 8 13 8 5 13 -15 10 -12 -2 -46 29 -46 42 0 6 6 3 13 -7 7 -9
19 -18 27 -19z m-127 3 c3 -11 3 -20 1 -20 -2 0 -8 9 -14 20 -6 11 -7 20 -2
20 6 0 12 -9 15 -20z m-43 6 c0 -2 -7 -7 -16 -10 -8 -3 -12 -2 -9 4 6 10 25
14 25 6z m-48 -13 c-6 -2 -9 -10 -6 -15 4 -7 2 -8 -5 -4 -13 9 -5 26 12 25 9
0 8 -2 -1 -6z m134 -26 c-3 -24 -32 -35 -48 -19 -6 6 -1 8 14 5 18 -4 24 0 25
16 1 13 -2 19 -9 15 -7 -4 -8 -2 -4 5 11 17 26 3 22 -22z m37 16 c-7 -3 -13
-12 -14 -21 0 -11 -2 -13 -6 -4 -6 15 17 46 26 36 3 -4 0 -9 -6 -11z m-228
-12 c-9 -8 -36 -10 -30 -2 2 4 11 8 20 8 8 0 13 -3 10 -6z m125 -1 c-8 -5 -19
-10 -25 -10 -5 0 -3 5 5 10 8 5 20 10 25 10 6 0 3 -5 -5 -10z m124 -2 c-5 -8
-2 -9 10 -5 10 4 15 3 11 -3 -7 -12 -35 -13 -35 -2 0 9 10 22 17 22 2 0 1 -5
-3 -12z m-398 -20 c3 -4 -1 -5 -10 -4 -8 1 -18 5 -22 8 -3 4 1 5 10 4 8 -1 18
-5 22 -8z m204 3 c0 -6 -4 -12 -8 -15 -5 -3 -9 1 -9 9 0 8 4 15 9 15 4 0 8 -4
8 -9z m84 -16 c11 -8 16 -15 10 -15 -5 0 -18 7 -28 15 -11 8 -16 15 -10 15 5
0 18 -7 28 -15z m142 0 c-3 -8 -1 -15 4 -15 6 0 10 -4 10 -10 0 -17 -14 -11
-28 11 -8 12 -9 18 -3 14 6 -3 11 -1 11 4 0 6 3 11 6 11 3 0 4 -7 0 -15z m34
0 c0 -8 5 -15 11 -15 5 0 8 4 4 9 -11 18 15 22 37 5 17 -12 18 -15 5 -10 -12
4 -27 -3 -44 -20 -16 -16 -23 -20 -19 -9 3 9 1 25 -4 36 -7 13 -7 19 0 19 5 0
10 -7 10 -15z m-80 -5 c0 -5 -4 -10 -10 -10 -5 0 -10 5 -10 10 0 6 5 10 10 10
6 0 10 -4 10 -10z m-360 -14 c0 -3 -4 -8 -10 -11 -5 -3 -10 -1 -10 4 0 6 5 11
10 11 6 0 10 -2 10 -4z m315 -6 c4 -6 -1 -7 -11 -3 -11 4 -15 2 -11 -4 4 -6 0
-14 -8 -17 -13 -4 -14 -2 -5 14 12 22 25 26 35 10z m61 1 c-4 -5 0 -12 6 -14
8 -3 6 -6 -4 -6 -18 -1 -24 10 -11 22 9 10 15 8 9 -2z m194 -24 c13 4 13 3 0
-6 -10 -7 -11 -11 -2 -11 23 0 27 -2 43 -16 9 -8 19 -11 23 -7 4 4 4 0 0 -10
-5 -13 -2 -16 10 -11 9 3 17 1 17 -5 1 -6 2 -16 3 -21 0 -6 8 -15 16 -20 10
-7 11 -10 3 -11 -7 -1 -17 -3 -23 -4 -5 -1 -15 -3 -21 -4 -5 0 -7 -7 -3 -13 6
-10 4 -10 -8 0 -10 8 -19 9 -22 3 -3 -5 -2 -11 4 -13 6 -2 0 -9 -12 -17 -21
-13 -22 -13 -9 2 7 10 9 17 3 17 -15 0 -35 -28 -27 -39 4 -7 -1 -8 -11 -4 -12
5 -15 3 -9 -6 6 -10 3 -11 -13 -2 -24 13 -38 31 -23 31 5 0 11 -6 14 -12 3
-10 7 -10 20 1 17 13 14 31 -4 31 -6 0 -7 -6 -3 -12 5 -9 2 -8 -9 1 -15 12
-21 11 -42 -9 -14 -13 -28 -20 -32 -17 -3 4 -1 7 6 7 7 0 9 5 6 10 -4 6 -12 7
-18 4 -7 -4 -9 -4 -5 0 4 5 -4 18 -18 30 -19 16 -22 24 -13 36 9 13 10 13 6
-2 -8 -24 4 -30 19 -10 9 13 9 19 1 25 -7 5 -3 6 10 2 22 -6 37 8 38 35 0 8 9
15 19 15 27 0 44 31 27 47 -10 11 -12 9 -9 -7 2 -13 -3 -20 -12 -20 -8 0 -21
-4 -27 -8 -7 -5 -13 -6 -13 -3 0 2 -3 11 -6 19 -3 8 2 17 12 21 14 5 15 4 5
-8 -9 -11 -7 -13 14 -13 19 0 23 2 15 12 -17 21 12 26 30 6 9 -10 22 -16 30
-14z m-369 6 c13 -16 12 -17 -3 -4 -10 7 -18 15 -18 17 0 8 8 3 21 -13z m139
2 c0 -8 -4 -15 -10 -15 -5 0 -7 7 -4 15 4 8 8 15 10 15 2 0 4 -7 4 -15z m-163
-18 c0 -8 -6 -14 -14 -14 -9 0 -10 4 -2 14 6 7 12 13 14 13 1 0 2 -6 2 -13z
m235 -9 c-9 -9 -15 -9 -24 1 -11 11 -10 13 5 8 10 -4 17 -2 17 5 0 6 3 8 7 5
4 -4 1 -13 -5 -19z m-415 5 c-4 -3 -1 -13 6 -22 11 -14 10 -14 -5 -2 -16 12
-16 31 -1 31 4 0 3 -3 0 -7z m260 0 c-4 -3 -1 -13 5 -22 7 -9 8 -13 4 -9 -5 4
-15 0 -23 -10 -13 -16 -13 -15 -5 3 5 11 7 26 5 33 -3 6 1 12 8 12 7 0 9 -3 6
-7z m56 -28 c-9 -16 -10 -16 -16 -1 -5 12 -3 15 5 10 8 -5 9 -1 4 12 -5 14 -4
16 4 7 8 -7 9 -17 3 -28z m58 18 c13 -17 13 -17 -5 -3 -18 14 -19 13 -13 -2 3
-10 2 -18 -3 -18 -11 0 -13 23 -3 33 9 9 9 9 24 -10z m94 -10 c5 -14 4 -15 -6
-6 -9 9 -18 9 -33 2 -20 -10 -20 -10 -2 5 25 20 32 20 41 -1z m-329 -21 c-3
-3 -1 -10 4 -17 7 -8 6 -12 -3 -12 -7 0 -13 11 -13 23 0 12 4 20 9 17 4 -3 6
-8 3 -11z m250 3 c-11 -8 -25 -15 -30 -15 -6 1 0 7 14 15 32 19 40 18 16 0z
m-52 -35 c-5 -5 -10 3 -11 18 -1 22 0 24 9 8 6 -10 6 -22 2 -26z m125 31 c9
-6 6 -8 -13 -8 -14 0 -23 3 -20 8 7 11 15 11 33 0z m-259 -5 c0 -2 -8 -10 -17
-17 -16 -13 -17 -12 -4 4 13 16 21 21 21 13z m210 -4 c0 -5 -6 -17 -14 -28
-14 -19 -15 -18 -13 3 0 12 5 19 9 17 4 -3 8 0 8 5 0 6 2 11 5 11 3 0 5 -4 5
-8z m-450 -8 c0 -8 -19 -13 -24 -6 -3 5 1 9 9 9 8 0 15 -2 15 -3z m94 -10 c3
-8 2 -12 -4 -9 -6 3 -10 10 -10 16 0 14 7 11 14 -7z m56 12 c0 -2 -8 -10 -17
-17 -16 -13 -17 -12 -4 4 13 16 21 21 21 13z m110 -10 c0 -2 -8 -10 -17 -17
-16 -13 -17 -12 -4 4 13 16 21 21 21 13z m495 -16 c-3 -5 -13 -6 -21 -3 -12 4
-13 8 -3 14 15 9 32 2 24 -11z m-458 -12 c2 -17 0 -19 -7 -8 -5 8 -6 18 -4 22
8 12 10 10 11 -14z m113 18 c0 -2 -7 -7 -16 -10 -8 -3 -12 -2 -9 4 6 10 25 14
25 6z m-213 -21 c0 -8 -4 -12 -9 -9 -5 3 -6 10 -3 15 9 13 12 11 12 -6z m150
-7 c-3 -8 -6 -5 -6 6 -1 11 2 17 5 13 3 -3 4 -12 1 -19z m-187 6 c0 -8 -19
-13 -24 -6 -3 5 1 9 9 9 8 0 15 -2 15 -3z m255 -4 c3 -5 1 -10 -4 -10 -6 0
-11 5 -11 10 0 6 2 10 4 10 3 0 8 -4 11 -10z m-321 -18 c3 -5 -1 -9 -9 -9 -8
0 -12 4 -9 9 3 4 7 8 9 8 2 0 6 -4 9 -8z m309 -12 c9 -11 13 -20 7 -20 -5 0
-14 9 -20 20 -6 11 -9 20 -8 20 2 0 11 -9 21 -20z m-123 6 c0 -2 -8 -10 -17
-17 -16 -13 -17 -12 -4 4 13 16 21 21 21 13z m95 -6 c3 -6 -1 -7 -9 -4 -18 7
-21 14 -7 14 6 0 13 -4 16 -10z m82 -6 c-3 -3 -12 -4 -19 -1 -8 3 -5 6 6 6 11
1 17 -2 13 -5z m-382 -13 c3 -5 2 -12 -3 -15 -5 -3 -9 1 -9 9 0 17 3 19 12 6z
m222 -4 c0 -8 -6 -14 -14 -14 -9 0 -10 4 -2 14 6 7 12 13 14 13 1 0 2 -6 2
-13z m-67 -2 c0 -2 -6 -8 -13 -14 -10 -8 -14 -7 -14 2 0 8 6 14 14 14 7 0 13
-1 13 -2z m242 -5 c1 -3 -3 -14 -10 -25 -6 -11 -12 -15 -12 -9 0 5 6 16 13 23
10 10 8 12 -8 9 -22 -3 -46 -28 -39 -40 3 -5 0 -8 -5 -8 -15 0 -14 6 4 34 13
20 52 31 57 16z m-82 -15 c0 -2 -6 -5 -13 -8 -8 -3 -14 1 -14 8 0 7 6 11 14 8
7 -3 13 -6 13 -8z m150 -5 c0 -5 -4 -10 -10 -10 -5 0 -10 5 -10 10 0 6 5 10
10 10 6 0 10 -4 10 -10z m-30 -16 c0 -2 -7 -4 -15 -4 -8 0 -15 4 -15 10 0 5 7
7 15 4 8 -4 15 -8 15 -10z m-390 2 c0 -3 -4 -8 -10 -11 -5 -3 -10 -1 -10 4 0
6 5 11 10 11 6 0 10 -2 10 -4z m177 -13 c0 -9 -4 -10 -14 -2 -7 6 -13 12 -13
14 0 1 6 2 13 2 8 0 14 -6 14 -14z m38 -1 c-3 -3 -11 0 -18 7 -9 10 -8 11 6 5
10 -3 15 -9 12 -12z m235 14 c0 -2 -7 -7 -16 -10 -8 -3 -12 -2 -9 4 6 10 25
14 25 6z m-47 -27 c-8 -8 -13 -7 -18 2 -5 8 -4 10 3 5 7 -4 12 -2 12 5 0 7 3
9 7 6 4 -4 2 -12 -4 -18z m-252 -6 c13 -16 12 -17 -3 -4 -10 7 -18 15 -18 17
0 8 8 3 21 -13z m122 3 c4 -10 0 -12 -15 -8 -15 4 -17 7 -6 13 17 11 15 11 21
-5z m87 4 c0 -5 -4 -10 -10 -10 -5 0 -10 5 -10 10 0 6 5 10 10 10 6 0 10 -4
10 -10z m-150 -4 c0 -2 -7 -7 -16 -10 -8 -3 -12 -2 -9 4 6 10 25 14 25 6z m10
-21 c-6 -8 -8 -20 -4 -27 5 -10 4 -10 -6 -1 -11 10 -11 15 0 28 7 8 15 15 17
15 3 0 0 -7 -7 -15z m153 0 c-3 -9 -8 -14 -10 -11 -3 3 -2 9 2 15 9 16 15 13
8 -4z m-80 -10 c-3 -9 -8 -14 -10 -11 -3 3 -2 9 2 15 9 16 15 13 8 -4z m37 1
c0 -2 -7 -7 -16 -10 -8 -3 -12 -2 -9 4 6 10 25 14 25 6z m-290 -26 c0 -5 -5
-10 -11 -10 -5 0 -7 5 -4 10 3 6 8 10 11 10 2 0 4 -4 4 -10z m177 -45 c0 -8
-4 -12 -9 -9 -5 4 -7 9 -4 12 3 3 -2 15 -11 26 -18 21 -18 21 3 3 11 -9 21
-24 21 -32z m59 26 c0 -16 -4 -17 -18 -10 -10 5 -18 12 -18 15 0 3 4 3 9 -1 5
-3 12 -1 16 5 9 14 11 13 11 -9z m-28 -36 c-3 -3 -9 2 -12 12 -6 14 -5 15 5 6
7 -7 10 -15 7 -18z m-28 -21 c0 -8 -19 -13 -24 -6 -3 5 1 9 9 9 8 0 15 -2 15
-3z m-200 -44 c0 -5 -2 -10 -4 -10 -3 0 -8 5 -11 10 -3 6 -1 10 4 10 6 0 11
-4 11 -10z m-9 -53 c-10 -9 -11 -8 -5 6 3 10 9 15 12 12 3 -3 0 -11 -7 -18z"/>
<path d="M2722 1967 c-7 -8 -9 -17 -5 -20 3 -4 12 1 20 11 8 11 12 12 11 3 -2
-7 3 -16 11 -19 9 -3 11 0 7 9 -4 8 -1 6 7 -4 9 -10 18 -18 22 -17 4 1 10 -2
13 -6 4 -4 1 -4 -5 0 -7 4 -13 3 -13 -2 0 -10 30 -25 36 -19 7 7 -35 64 -47
64 -8 0 -21 4 -30 7 -9 4 -21 1 -27 -7z"/>
<path d="M2686 1949 c4 -7 -10 -27 -32 -47 -38 -35 -38 -35 -16 -45 12 -6 22
-15 22 -20 0 -6 11 0 25 13 13 12 22 27 19 32 -3 5 2 18 11 28 13 15 22 17 36
10 10 -6 20 -6 23 -1 10 16 -38 21 -61 5 -13 -8 -23 -18 -24 -22 -5 -50 -12
-56 -28 -29 -8 12 -10 19 -6 15 10 -10 58 49 50 62 -3 5 -11 10 -16 10 -6 0
-7 -5 -3 -11z"/>
<path d="M2830 1920 c0 -5 5 -10 11 -10 5 0 7 5 4 10 -3 6 -8 10 -11 10 -2 0
-4 -4 -4 -10z"/>
<path d="M2723 1907 c-5 -6 -10 -23 -11 -36 -1 -22 0 -22 19 -6 24 22 24 29 2
20 -14 -5 -15 -3 -6 6 13 13 36 3 27 -13 -4 -6 -1 -8 7 -6 8 3 13 11 11 17 -1
7 2 10 8 6 15 -9 -9 -37 -27 -31 -7 3 -13 1 -13 -4 0 -20 19 -18 44 5 14 13
26 19 26 13 0 -7 5 -6 15 2 8 6 20 8 27 4 8 -4 10 -3 5 2 -5 5 -18 10 -30 11
-38 4 -76 11 -85 17 -5 3 -14 0 -19 -7z"/>
<path d="M3691 3260 c-16 -9 -17 -29 -21 -1575 -3 -856 -3 -860 18 -919 43
-117 143 -212 252 -239 45 -11 259 -13 1130 -12 l1075 1 65 30 c122 58 202
172 217 309 5 39 8 534 8 1100 l0 1030 -33 67 c-41 85 -106 152 -180 186 l-57
27 -1230 2 c-701 1 -1236 -2 -1244 -7z m2501 -57 c88 -40 171 -140 194 -233 8
-30 6 -2022 -2 -2098 -11 -122 -75 -222 -175 -277 l-54 -30 -1091 -2 c-1236
-3 -1142 -9 -1239 79 -34 31 -62 69 -81 110 l-29 63 2 845 c1 465 2 1006 2
1202 l1 358 328 2 c180 2 725 3 1212 3 879 -1 885 -1 932 -22z"/>
<path d="M4935 3048 c-243 -32 -409 -220 -392 -443 6 -85 39 -188 82 -260 l32
-53 -61 33 c-217 118 -425 105 -567 -37 -191 -191 -187 -577 8 -764 168 -160
452 -138 689 53 33 26 62 51 65 55 10 15 31 -45 36 -103 10 -109 -36 -173
-232 -320 -71 -54 -151 -119 -178 -145 -60 -60 -107 -154 -114 -228 l-5 -56
693 2 694 3 1 40 c2 123 -69 232 -245 374 -121 98 -166 145 -192 197 -28 58
-27 161 2 216 8 15 17 12 71 -32 292 -236 641 -205 786 69 41 77 59 151 61
259 6 256 -135 454 -346 488 -114 19 -260 -12 -366 -77 -26 -16 -49 -29 -50
-29 -2 0 16 39 39 86 75 153 84 303 26 425 -34 72 -100 144 -165 182 -95 56
-244 82 -372 65z m508 -423 c-3 -9 -8 -14 -10 -11 -3 3 -2 9 2 15 9 16 15 13
8 -4z m322 -373 c-3 -3 -11 0 -18 7 -9 10 -8 11 6 5 10 -3 15 -9 12 -12z m86
-129 c13 -16 12 -17 -3 -4 -10 7 -18 15 -18 17 0 8 8 3 21 -13z m119 -43 c0
-5 -5 -10 -11 -10 -5 0 -7 5 -4 10 3 6 8 10 11 10 2 0 4 -4 4 -10z"/>
</g>
</svg>
